<?xml version="1.0" encoding="utf-8" standalone="no"?>
<!DOCTYPE svg PUBLIC "-//W3C//DTD SVG 1.1//EN"
  "http://www.w3.org/Graphics/SVG/1.1/DTD/svg11.dtd">
<!-- Created with matplotlib (http://matplotlib.org/) -->
<svg height="360pt" version="1.1" viewBox="0 0 432 360" width="432pt" xmlns="http://www.w3.org/2000/svg" xmlns:xlink="http://www.w3.org/1999/xlink">
 <defs>
  <style type="text/css">
*{stroke-linecap:butt;stroke-linejoin:round;stroke-miterlimit:100000;}
  </style>
 </defs>
 <g id="figure_1">
  <g id="patch_1">
   <path d="M 0 360 
L 432 360 
L 432 0 
L 0 0 
z
" style="fill:#ffffff;"/>
  </g>
  <g id="axes_1">
   <g id="patch_2">
    <path d="M 54 324 
L 388.8 324 
L 388.8 36 
L 54 36 
z
" style="fill:#ffffff;"/>
   </g>
   <g id="line2d_1">
    <path clip-path="url(#p3b5cdf15a0)" d="M 187.92 324 
L 187.92 36 
" style="fill:none;stroke:#000000;stroke-dasharray:1.000000,3.000000;stroke-dashoffset:0.0;"/>
   </g>
   <g id="line2d_2">
    <path clip-path="url(#p3b5cdf15a0)" d="M 54 320.18374 
L 60.0264 320.18374 
L 60.696 307.960976 
L 63.3744 307.960976 
L 64.044 297.435772 
L 66.7224 297.435772 
L 67.392 288.902439 
L 68.7312 288.902439 
L 69.4008 273.606504 
L 72.7488 273.606504 
L 74.088 262.068293 
L 74.7576 262.068293 
L 75.4272 251.75935 
L 78.1056 251.75935 
L 78.7752 243.442276 
L 80.1144 243.442276 
L 80.784 239.754472 
L 81.4536 239.754472 
L 82.1232 232.806504 
L 82.7928 229.679675 
L 83.4624 229.679675 
L 84.132 223.613008 
L 86.8104 223.613008 
L 87.48 216.338211 
L 88.1496 211.437398 
L 89.4888 211.437398 
L 90.1584 207.014634 
L 91.4976 207.014634 
L 92.1672 205.318699 
L 92.8368 205.318699 
L 93.5064 201.8 
L 94.176 199.998374 
L 94.8456 196.606504 
L 96.1848 196.606504 
L 97.524 190.811382 
L 98.8632 190.811382 
L 99.5328 188.292683 
L 100.2024 188.292683 
L 100.872 187.006504 
L 101.5416 183.513821 
L 102.2112 183.513821 
L 102.8808 179.084553 
L 104.8896 179.084553 
L 105.5592 177.157724 
L 106.2288 177.157724 
L 106.8984 175.312195 
L 107.568 174.305691 
L 108.2376 170.743089 
L 108.9072 170.743089 
L 109.5768 169.069919 
L 110.2464 169.069919 
L 110.916 168.299187 
L 112.2552 165.222764 
L 113.5944 165.222764 
L 114.264 163.219512 
L 114.9336 161.806504 
L 115.6032 161.806504 
L 116.2728 159.250407 
L 116.9424 159.250407 
L 117.612 156.905691 
L 119.6208 156.905691 
L 120.96 153.778862 
L 122.2992 151.468293 
L 122.9688 150.630894 
L 123.6384 150.630894 
L 124.308 149.613008 
L 124.9776 149.613008 
L 125.6472 148.538211 
L 126.9864 147 
L 127.656 146.55122 
L 128.3256 145.62439 
L 128.9952 144.022764 
L 129.6648 144.022764 
L 130.3344 143.531707 
L 131.004 141.921951 
L 131.6736 141.921951 
L 133.0128 140.593496 
L 133.6824 140.593496 
L 134.352 140.170732 
L 135.0216 137.964228 
L 137.0304 136.071545 
L 137.7 136.071545 
L 139.0392 134.995122 
L 139.7088 134.689431 
L 140.3784 134.108943 
L 141.048 133.22439 
L 141.7176 132.128455 
L 142.3872 131.55935 
L 143.0568 131.55935 
L 143.7264 131.066667 
L 144.396 130.125203 
L 145.0656 130.125203 
L 145.7352 129.219512 
L 146.4048 129.219512 
L 147.0744 128.80813 
L 149.0832 126.939837 
L 149.7528 126.515447 
L 150.4224 125.713821 
L 151.7616 124.962602 
L 152.4312 124.962602 
L 153.1008 124.554472 
L 154.44 123.354472 
L 155.7792 122.422764 
L 156.4488 121.413008 
L 157.788 121.413008 
L 159.1272 120.278049 
L 159.7968 120.278049 
L 160.4664 119.676423 
L 161.136 119.466667 
L 161.8056 119.081301 
L 162.4752 118.04878 
L 163.1448 117.385366 
L 163.8144 117.385366 
L 164.484 116.811382 
L 165.1536 116.56748 
L 165.8232 116.201626 
L 166.4928 115.964228 
L 167.1624 115.964228 
L 167.832 115.373984 
L 168.5016 114.500813 
L 169.1712 114.149593 
L 169.8408 113.468293 
L 170.5104 113.468293 
L 171.18 112.630894 
L 171.8496 112.630894 
L 173.1888 112.182114 
L 173.8584 111.663415 
L 174.528 111.526829 
L 175.1976 110.717073 
L 176.5368 110.126829 
L 177.2064 109.515447 
L 177.876 109.084553 
L 178.5456 109.084553 
L 179.2152 108.661789 
L 180.5544 108.21626 
L 182.5632 107.276423 
L 183.2328 106.585366 
L 183.9024 106.411382 
L 184.572 105.947967 
L 185.2416 105.947967 
L 186.5808 105.274797 
L 187.2504 105.144715 
L 188.5896 104.307317 
L 189.2592 104.115447 
L 189.9288 103.58374 
L 190.5984 103.430894 
L 191.268 103.430894 
L 192.6072 102.721951 
L 193.2768 102.721951 
L 193.9464 102.42439 
L 194.616 102.307317 
L 195.2856 101.531707 
L 195.9552 101.430894 
L 196.6248 101.039024 
L 197.2944 100.869919 
L 198.6336 100.287805 
L 199.3032 100.112195 
L 200.6424 100.006504 
L 201.9816 98.947967 
L 202.6512 98.845528 
L 203.9904 98.177236 
L 204.66 97.868293 
L 206.6688 97.617886 
L 207.3384 97.154472 
L 208.008 97.092683 
L 208.6776 96.471545 
L 209.3472 96.213008 
L 210.0168 96.121951 
L 210.6864 95.749593 
L 212.0256 95.450407 
L 212.6952 95.360976 
L 213.3648 95.055285 
L 214.704 94.861789 
L 216.0432 93.891057 
L 216.7128 93.79187 
L 218.052 93.429268 
L 220.0608 92.865041 
L 220.7304 92.778862 
L 221.4 92.495935 
L 222.0696 92.02439 
L 223.4088 91.665041 
L 224.0784 91.504065 
L 224.748 91.211382 
L 228.096 90.395122 
L 229.4352 89.843902 
L 230.7744 89.580488 
L 231.444 89.162602 
L 232.1136 89.089431 
L 232.7832 88.897561 
L 234.1224 88.793496 
L 235.4616 88.141463 
L 236.1312 88.009756 
L 236.8008 87.58374 
L 237.4704 87.543089 
L 239.4792 87.095935 
L 242.8272 86.217886 
L 244.836 85.720325 
L 245.5056 85.720325 
L 246.1752 85.429268 
L 247.5144 85.261789 
L 248.184 85.182114 
L 249.5232 84.593496 
L 250.1928 84.461789 
L 250.8624 84.461789 
L 252.8712 84.04878 
L 254.2104 83.887805 
L 256.8888 83.203252 
L 257.5584 83.149593 
L 258.228 82.84878 
L 259.5672 82.64878 
L 260.2368 82.64878 
L 260.9064 82.393496 
L 261.576 82.362602 
L 262.9152 81.904065 
L 263.5848 81.78374 
L 264.2544 81.544715 
L 269.6112 80.630894 
L 270.2808 80.372358 
L 274.2984 79.674797 
L 276.3072 79.292683 
L 276.9768 79.052033 
L 283.0032 78.060163 
L 283.6728 77.900813 
L 285.012 77.734959 
L 287.6904 77.395122 
L 292.3776 76.556098 
L 295.7256 76.074797 
L 298.404 75.635772 
L 299.0736 75.635772 
L 301.0824 75.370732 
L 302.4216 75.139837 
L 305.1 74.700813 
L 319.8312 72.765854 
L 321.1704 72.661789 
L 325.8576 72.087805 
L 328.536 71.804878 
L 329.8752 71.525203 
L 333.2232 71.265041 
L 339.9192 70.617886 
L 341.928 70.491057 
L 343.2672 70.253659 
L 349.2936 69.780488 
L 351.3024 69.580488 
L 355.32 69.336585 
L 357.3288 69.081301 
L 388.8 67.107317 
L 388.8 67.107317 
" style="fill:none;stroke:#0000ff;stroke-linecap:square;"/>
   </g>
   <g id="line2d_3">
    <path clip-path="url(#p3b5cdf15a0)" d="M 54 319.211556 
L 60.0264 319.211556 
L 60.696 304.071479 
L 63.3744 304.071479 
L 64.044 291.418399 
L 66.7224 291.418399 
L 67.392 281.577837 
L 68.7312 281.577837 
L 69.4008 263.371334 
L 72.7488 263.371334 
L 74.088 249.842596 
L 74.7576 249.842596 
L 75.4272 237.720118 
L 78.1056 237.720118 
L 78.7752 227.469397 
L 80.1144 227.469397 
L 80.784 223.130175 
L 81.4536 223.130175 
L 82.1232 214.803296 
L 82.7928 210.851446 
L 83.4624 210.851446 
L 84.132 203.383948 
L 86.8104 203.383948 
L 87.48 194.985453 
L 88.1496 189.471093 
L 89.4888 189.471093 
L 90.1584 184.145536 
L 91.4976 184.145536 
L 92.1672 182.068699 
L 92.8368 182.068699 
L 93.5064 177.928046 
L 94.176 175.87074 
L 94.8456 172.234648 
L 96.1848 172.234648 
L 97.524 165.382388 
L 98.8632 165.382388 
L 99.5328 162.494998 
L 100.2024 162.494998 
L 100.872 161.023634 
L 101.5416 157.062019 
L 102.2112 157.062019 
L 102.8808 152.003391 
L 104.8896 152.003391 
L 105.5592 149.825642 
L 106.2288 149.825642 
L 106.8984 147.784612 
L 107.568 146.755959 
L 108.2376 142.722729 
L 108.9072 142.722729 
L 109.5768 140.958394 
L 110.2464 140.958394 
L 110.916 140.261775 
L 112.2552 136.960971 
L 113.5944 136.960971 
L 114.264 134.679055 
L 114.9336 133.097013 
L 115.6032 133.097013 
L 116.2728 130.548167 
L 116.9424 130.548167 
L 117.612 128.051406 
L 119.6208 128.051406 
L 121.6296 123.80984 
L 122.9688 121.798108 
L 123.6384 121.798108 
L 124.308 120.802007 
L 124.9776 120.802007 
L 126.3168 119.122309 
L 126.9864 118.487539 
L 127.656 118.035062 
L 128.3256 117.016174 
L 128.9952 115.453664 
L 129.6648 115.453664 
L 130.3344 115.079312 
L 131.004 113.539588 
L 131.6736 113.539588 
L 133.0128 112.292835 
L 133.6824 112.292835 
L 134.352 111.8664 
L 135.0216 109.896986 
L 136.3608 108.61117 
L 137.0304 108.018718 
L 137.7 108.018718 
L 140.3784 106.273914 
L 142.3872 104.005018 
L 143.0568 104.005018 
L 143.7264 103.565562 
L 144.396 102.709437 
L 145.0656 102.709437 
L 145.7352 101.947713 
L 146.4048 101.947713 
L 147.0744 101.586382 
L 149.0832 99.913194 
L 149.7528 99.571395 
L 150.4224 98.855244 
L 151.092 98.598081 
L 151.7616 98.200943 
L 152.4312 98.200943 
L 153.1008 97.852633 
L 154.44 96.75562 
L 155.7792 95.964599 
L 156.4488 95.101963 
L 157.788 95.101963 
L 159.1272 94.144926 
L 159.7968 94.144926 
L 160.4664 93.666407 
L 161.136 93.480859 
L 161.8056 93.129294 
L 162.4752 92.195043 
L 163.1448 91.573294 
L 163.8144 91.573294 
L 164.484 91.101285 
L 165.8232 90.704147 
L 166.4928 90.446984 
L 167.1624 90.446984 
L 167.832 89.991252 
L 168.5016 89.249059 
L 169.1712 88.884473 
L 169.8408 88.27249 
L 170.5104 88.27249 
L 171.18 87.608423 
L 171.8496 87.608423 
L 173.1888 87.217795 
L 173.8584 86.954122 
L 174.528 86.823912 
L 175.1976 86.270523 
L 177.876 84.916347 
L 178.5456 84.916347 
L 179.2152 84.597335 
L 180.5544 84.327151 
L 181.8936 83.855142 
L 182.5632 83.471025 
L 183.2328 82.937167 
L 183.9024 82.810213 
L 184.572 82.497711 
L 185.2416 82.497711 
L 185.9112 82.133125 
L 187.92 81.540673 
L 188.5896 81.127259 
L 189.2592 81.055644 
L 189.9288 80.645485 
L 190.5984 80.508765 
L 191.268 80.508765 
L 191.9376 80.326472 
L 192.6072 79.981418 
L 193.2768 79.981418 
L 194.616 79.698213 
L 195.2856 78.969041 
L 195.9552 78.890916 
L 196.6248 78.516564 
L 199.3032 77.862263 
L 200.6424 77.790648 
L 201.312 77.46187 
L 201.9816 76.820589 
L 202.6512 76.742464 
L 203.3208 76.296497 
L 204.66 75.902614 
L 208.008 75.303652 
L 208.6776 74.629819 
L 209.3472 74.245702 
L 210.0168 74.177342 
L 210.6864 73.85833 
L 212.0256 73.594656 
L 212.6952 73.575125 
L 213.3648 73.350514 
L 214.704 73.217049 
L 215.3736 72.624597 
L 216.0432 72.246991 
L 216.7128 72.191652 
L 217.3824 71.88566 
L 218.7216 71.67407 
L 221.4 71.143467 
L 222.0696 70.75284 
L 226.7568 69.776271 
L 227.4264 69.68838 
L 230.1048 68.861551 
L 230.7744 68.698789 
L 231.444 68.392798 
L 234.1224 68.086806 
L 235.4616 67.601777 
L 236.1312 67.468312 
L 236.8008 67.067919 
L 237.4704 67.038622 
L 238.8096 66.778204 
L 242.1576 66.182496 
L 243.4968 65.756061 
L 244.836 65.45658 
L 245.5056 65.45658 
L 246.1752 65.17663 
L 247.5144 65.017124 
L 248.184 64.929233 
L 249.5232 64.444203 
L 250.1928 64.32376 
L 250.8624 64.32376 
L 252.8712 63.920111 
L 254.88 63.610864 
L 255.5496 63.337425 
L 256.8888 63.12909 
L 257.5584 63.077007 
L 258.228 62.829609 
L 262.2456 62.123224 
L 264.924 61.485199 
L 266.2632 61.296396 
L 268.272 61.019701 
L 268.9416 60.746262 
L 269.6112 60.716964 
L 270.2808 60.430504 
L 271.62 60.284019 
L 272.2896 60.007324 
L 276.3072 59.294429 
L 276.9768 59.043776 
L 279.6552 58.620596 
L 281.664 58.275542 
L 283.6728 57.793768 
L 285.6816 57.598454 
L 287.6904 57.302228 
L 291.708 56.657692 
L 295.056 56.371232 
L 297.0648 55.993625 
L 302.4216 55.436981 
L 315.8136 53.825642 
L 323.1792 53.262487 
L 326.5272 53.044386 
L 328.536 52.940219 
L 329.8752 52.803499 
L 333.2232 52.617951 
L 337.2408 52.305449 
L 339.9192 52.178495 
L 342.5976 52.018989 
L 345.9456 51.843206 
L 348.624 51.732529 
L 351.972 51.576278 
L 361.3464 51.208436 
L 365.364 51.071717 
L 379.4256 50.697365 
L 388.1304 50.502051 
L 388.8 50.489031 
L 388.8 50.489031 
" style="fill:none;stroke:#ff0000;stroke-linecap:square;"/>
   </g>
   <g id="line2d_4">
    <path clip-path="url(#p3b5cdf15a0)" d="M 54 321.154015 
L 60.0264 321.154015 
L 60.696 311.842837 
L 63.3744 311.842837 
L 64.044 303.441335 
L 66.7224 303.441335 
L 67.392 296.212664 
L 68.7312 296.212664 
L 69.4008 283.821584 
L 72.7488 283.821584 
L 74.088 274.269992 
L 74.7576 274.269992 
L 75.4272 265.771024 
L 78.1056 265.771024 
L 78.7752 259.383803 
L 80.1144 259.383803 
L 80.784 256.346137 
L 81.4536 256.346137 
L 82.1232 250.774375 
L 82.7928 248.470947 
L 83.4624 248.470947 
L 84.132 243.802362 
L 86.8104 243.802362 
L 87.48 237.649057 
L 88.1496 233.360587 
L 89.4888 233.360587 
L 90.1584 229.838844 
L 91.4976 229.838844 
L 92.1672 228.523063 
L 92.8368 228.523063 
L 93.5064 225.625097 
L 94.176 224.078649 
L 94.8456 220.930522 
L 96.1848 220.930522 
L 97.524 216.190463 
L 98.8632 216.190463 
L 99.5328 214.039731 
L 100.2024 214.039731 
L 100.872 212.938374 
L 101.5416 209.913703 
L 102.2112 209.913703 
L 102.8808 206.112559 
L 104.8896 206.112559 
L 105.5592 204.436157 
L 106.2288 204.436157 
L 106.8984 202.785746 
L 107.568 201.801347 
L 108.2376 198.70845 
L 108.9072 198.70845 
L 109.5768 197.126265 
L 110.2464 197.126265 
L 110.916 196.281566 
L 112.2552 193.429084 
L 113.5944 193.429084 
L 114.264 191.703949 
L 114.9336 190.459643 
L 115.6032 190.459643 
L 116.2728 187.896308 
L 116.9424 187.896308 
L 117.612 185.70334 
L 119.6208 185.70334 
L 120.96 182.454499 
L 122.2992 180.180311 
L 122.9688 179.407087 
L 123.6384 179.407087 
L 124.308 178.367457 
L 124.9776 178.367457 
L 125.6472 177.100409 
L 126.9864 175.456496 
L 127.656 175.011405 
L 128.3256 174.176453 
L 128.9952 172.535788 
L 129.6648 172.535788 
L 130.3344 171.928255 
L 131.004 170.248604 
L 131.6736 170.248604 
L 133.0128 168.838607 
L 133.6824 168.838607 
L 134.352 168.419507 
L 135.0216 165.976378 
L 137.0304 164.069309 
L 137.7 164.069309 
L 139.0392 162.883482 
L 139.7088 162.526109 
L 140.3784 161.889336 
L 141.048 160.901689 
L 141.7176 159.657383 
L 142.3872 159.059596 
L 143.0568 159.059596 
L 143.7264 158.513791 
L 144.396 157.487157 
L 145.0656 157.487157 
L 145.7352 156.437781 
L 146.4048 156.437781 
L 147.0744 155.976446 
L 148.4136 154.559951 
L 151.092 152.06809 
L 151.7616 151.671732 
L 152.4312 151.671732 
L 153.1008 151.203899 
L 154.44 149.901113 
L 155.7792 148.828996 
L 156.4488 147.672409 
L 157.788 147.672409 
L 158.4576 147.116857 
L 159.1272 146.359877 
L 159.7968 146.359877 
L 160.4664 145.635385 
L 161.136 145.401469 
L 161.8056 144.982368 
L 162.4752 143.851772 
L 163.1448 143.146773 
L 163.8144 143.146773 
L 164.484 142.471014 
L 165.1536 142.152628 
L 165.8232 141.649057 
L 166.4928 141.431385 
L 167.1624 141.431385 
L 167.832 140.706894 
L 168.5016 139.703002 
L 169.1712 139.365122 
L 169.8408 138.61464 
L 170.5104 138.61464 
L 171.18 137.604251 
L 171.8496 137.604251 
L 173.1888 137.097431 
L 173.8584 136.324207 
L 174.528 136.181258 
L 175.1976 135.115638 
L 176.5368 134.556838 
L 177.2064 133.695895 
L 177.876 133.20532 
L 178.5456 133.20532 
L 179.2152 132.679008 
L 181.8936 131.483434 
L 182.5632 131.035094 
L 183.2328 130.187147 
L 183.9024 129.966226 
L 184.572 129.352195 
L 185.2416 129.352195 
L 186.5808 128.559477 
L 187.2504 128.406782 
L 188.5896 127.441876 
L 189.2592 127.129987 
L 189.9288 126.47697 
L 190.5984 126.308031 
L 191.268 126.308031 
L 192.6072 125.417848 
L 193.2768 125.417848 
L 193.9464 125.018241 
L 194.616 124.872043 
L 195.2856 124.050086 
L 195.9552 123.92663 
L 196.6248 123.517276 
L 197.2944 123.341839 
L 197.964 122.880504 
L 199.3032 122.318454 
L 199.9728 122.318454 
L 200.6424 122.178754 
L 201.312 121.493249 
L 201.9816 121.031913 
L 202.6512 120.905208 
L 203.9904 120.232698 
L 204.66 119.790856 
L 206.6688 119.534197 
L 207.3384 118.916918 
L 208.008 118.838945 
L 208.6776 118.270398 
L 210.0168 118.023486 
L 210.6864 117.597888 
L 212.0256 117.263258 
L 212.6952 117.104064 
L 213.3648 116.717452 
L 214.704 116.464043 
L 216.0432 115.492639 
L 218.052 114.98582 
L 220.0608 114.290568 
L 220.7304 114.196352 
L 221.4 113.806491 
L 222.0696 113.254188 
L 222.7392 113.140479 
L 223.4088 112.825341 
L 224.0784 112.708383 
L 224.748 112.338015 
L 226.0872 111.925412 
L 227.4264 111.659007 
L 229.4352 110.651866 
L 230.7744 110.421199 
L 231.444 109.891638 
L 232.1136 109.807168 
L 232.7832 109.589495 
L 233.4528 109.589495 
L 234.1224 109.459542 
L 235.4616 108.640834 
L 236.1312 108.51088 
L 236.8008 108.059291 
L 237.4704 108.00731 
L 239.4792 107.4745 
L 244.836 105.944296 
L 245.5056 105.944296 
L 246.1752 105.642154 
L 248.184 105.395242 
L 248.8536 104.982639 
L 249.5232 104.703239 
L 250.1928 104.56029 
L 250.8624 104.56029 
L 253.5408 104.066466 
L 254.88 103.744831 
L 255.5496 103.406951 
L 257.5584 103.182781 
L 258.228 102.828657 
L 259.5672 102.640225 
L 260.2368 102.640225 
L 260.9064 102.34458 
L 261.576 102.318589 
L 262.2456 101.983959 
L 264.924 101.347186 
L 267.6024 100.950827 
L 268.272 100.827371 
L 268.9416 100.564215 
L 269.6112 100.505736 
L 270.2808 100.275069 
L 275.6376 99.410877 
L 277.6464 98.943044 
L 278.9856 98.800095 
L 283.0032 98.08535 
L 285.6816 97.695489 
L 287.6904 97.448577 
L 292.3776 96.467427 
L 295.056 96.171782 
L 295.7256 95.892382 
L 298.404 95.392061 
L 299.0736 95.392061 
L 306.4392 94.02105 
L 308.448 93.874852 
L 309.1176 93.562963 
L 311.1264 93.316051 
L 311.796 93.163356 
L 313.8048 93.0399 
L 315.144 92.770246 
L 315.8136 92.555823 
L 321.1704 91.818336 
L 321.84 91.711124 
L 323.1792 91.347254 
L 327.8664 90.716979 
L 329.2056 90.444076 
L 329.8752 90.210159 
L 331.884 89.982741 
L 335.9016 89.47917 
L 337.2408 89.232258 
L 338.58 89.102305 
L 340.5888 88.959356 
L 341.928 88.855393 
L 343.2672 88.504518 
L 348.624 88.004196 
L 350.6328 87.562354 
L 355.32 87.185489 
L 356.6592 86.889844 
L 357.9984 86.730651 
L 360.0072 86.590951 
L 362.016 86.48049 
L 362.6856 86.207587 
L 366.0336 85.89245 
L 368.0424 85.765745 
L 368.712 85.730008 
L 369.3816 85.492842 
L 376.0776 84.830079 
L 378.756 84.54743 
L 382.104 84.37849 
L 382.7736 84.118583 
L 388.8 83.692985 
L 388.8 83.692985 
" style="fill:none;stroke:#ffa500;stroke-linecap:square;"/>
   </g>
   <g id="patch_3">
    <path d="M 388.8 324 
L 388.8 36 
" style="fill:none;stroke:#000000;stroke-linecap:square;stroke-linejoin:miter;"/>
   </g>
   <g id="patch_4">
    <path d="M 54 36 
L 388.8 36 
" style="fill:none;stroke:#000000;stroke-linecap:square;stroke-linejoin:miter;"/>
   </g>
   <g id="patch_5">
    <path d="M 54 324 
L 54 36 
" style="fill:none;stroke:#000000;stroke-linecap:square;stroke-linejoin:miter;"/>
   </g>
   <g id="patch_6">
    <path d="M 54 324 
L 388.8 324 
" style="fill:none;stroke:#000000;stroke-linecap:square;stroke-linejoin:miter;"/>
   </g>
   <g id="matplotlib.axis_1">
    <g id="xtick_1">
     <g id="line2d_5">
      <defs>
       <path d="M 0 0 
L 0 -4 
" id="m07208bf6b2" style="stroke:#000000;stroke-width:0.5;"/>
      </defs>
      <g>
       <use style="stroke:#000000;stroke-width:0.5;" x="54.0" xlink:href="#m07208bf6b2" y="324.0"/>
      </g>
     </g>
     <g id="line2d_6">
      <defs>
       <path d="M 0 0 
L 0 4 
" id="mf530a0c709" style="stroke:#000000;stroke-width:0.5;"/>
      </defs>
      <g>
       <use style="stroke:#000000;stroke-width:0.5;" x="54.0" xlink:href="#mf530a0c709" y="36.0"/>
      </g>
     </g>
     <g id="text_1">
      <!-- 0 -->
      <defs>
       <path d="M 31.78125 66.40625 
Q 24.171875 66.40625 20.328125 58.90625 
Q 16.5 51.421875 16.5 36.375 
Q 16.5 21.390625 20.328125 13.890625 
Q 24.171875 6.390625 31.78125 6.390625 
Q 39.453125 6.390625 43.28125 13.890625 
Q 47.125 21.390625 47.125 36.375 
Q 47.125 51.421875 43.28125 58.90625 
Q 39.453125 66.40625 31.78125 66.40625 
M 31.78125 74.21875 
Q 44.046875 74.21875 50.515625 64.515625 
Q 56.984375 54.828125 56.984375 36.375 
Q 56.984375 17.96875 50.515625 8.265625 
Q 44.046875 -1.421875 31.78125 -1.421875 
Q 19.53125 -1.421875 13.0625 8.265625 
Q 6.59375 17.96875 6.59375 36.375 
Q 6.59375 54.828125 13.0625 64.515625 
Q 19.53125 74.21875 31.78125 74.21875 
" id="BitstreamVeraSans-Roman-30"/>
      </defs>
      <g transform="translate(50.1825 337.118125)scale(0.12 -0.12)">
       <use xlink:href="#BitstreamVeraSans-Roman-30"/>
      </g>
     </g>
    </g>
    <g id="xtick_2">
     <g id="line2d_7">
      <g>
       <use style="stroke:#000000;stroke-width:0.5;" x="120.96" xlink:href="#m07208bf6b2" y="324.0"/>
      </g>
     </g>
     <g id="line2d_8">
      <g>
       <use style="stroke:#000000;stroke-width:0.5;" x="120.96" xlink:href="#mf530a0c709" y="36.0"/>
      </g>
     </g>
     <g id="text_2">
      <!-- 10 -->
      <defs>
       <path d="M 12.40625 8.296875 
L 28.515625 8.296875 
L 28.515625 63.921875 
L 10.984375 60.40625 
L 10.984375 69.390625 
L 28.421875 72.90625 
L 38.28125 72.90625 
L 38.28125 8.296875 
L 54.390625 8.296875 
L 54.390625 0 
L 12.40625 0 
z
" id="BitstreamVeraSans-Roman-31"/>
      </defs>
      <g transform="translate(113.325 337.118125)scale(0.12 -0.12)">
       <use xlink:href="#BitstreamVeraSans-Roman-31"/>
       <use x="63.623046875" xlink:href="#BitstreamVeraSans-Roman-30"/>
      </g>
     </g>
    </g>
    <g id="xtick_3">
     <g id="line2d_9">
      <g>
       <use style="stroke:#000000;stroke-width:0.5;" x="187.92" xlink:href="#m07208bf6b2" y="324.0"/>
      </g>
     </g>
     <g id="line2d_10">
      <g>
       <use style="stroke:#000000;stroke-width:0.5;" x="187.92" xlink:href="#mf530a0c709" y="36.0"/>
      </g>
     </g>
     <g id="text_3">
      <!-- 20 -->
      <defs>
       <path d="M 19.1875 8.296875 
L 53.609375 8.296875 
L 53.609375 0 
L 7.328125 0 
L 7.328125 8.296875 
Q 12.9375 14.109375 22.625 23.890625 
Q 32.328125 33.6875 34.8125 36.53125 
Q 39.546875 41.84375 41.421875 45.53125 
Q 43.3125 49.21875 43.3125 52.78125 
Q 43.3125 58.59375 39.234375 62.25 
Q 35.15625 65.921875 28.609375 65.921875 
Q 23.96875 65.921875 18.8125 64.3125 
Q 13.671875 62.703125 7.8125 59.421875 
L 7.8125 69.390625 
Q 13.765625 71.78125 18.9375 73 
Q 24.125 74.21875 28.421875 74.21875 
Q 39.75 74.21875 46.484375 68.546875 
Q 53.21875 62.890625 53.21875 53.421875 
Q 53.21875 48.921875 51.53125 44.890625 
Q 49.859375 40.875 45.40625 35.40625 
Q 44.1875 33.984375 37.640625 27.21875 
Q 31.109375 20.453125 19.1875 8.296875 
" id="BitstreamVeraSans-Roman-32"/>
      </defs>
      <g transform="translate(180.285 337.118125)scale(0.12 -0.12)">
       <use xlink:href="#BitstreamVeraSans-Roman-32"/>
       <use x="63.623046875" xlink:href="#BitstreamVeraSans-Roman-30"/>
      </g>
     </g>
    </g>
    <g id="xtick_4">
     <g id="line2d_11">
      <g>
       <use style="stroke:#000000;stroke-width:0.5;" x="254.88" xlink:href="#m07208bf6b2" y="324.0"/>
      </g>
     </g>
     <g id="line2d_12">
      <g>
       <use style="stroke:#000000;stroke-width:0.5;" x="254.88" xlink:href="#mf530a0c709" y="36.0"/>
      </g>
     </g>
     <g id="text_4">
      <!-- 30 -->
      <defs>
       <path d="M 40.578125 39.3125 
Q 47.65625 37.796875 51.625 33 
Q 55.609375 28.21875 55.609375 21.1875 
Q 55.609375 10.40625 48.1875 4.484375 
Q 40.765625 -1.421875 27.09375 -1.421875 
Q 22.515625 -1.421875 17.65625 -0.515625 
Q 12.796875 0.390625 7.625 2.203125 
L 7.625 11.71875 
Q 11.71875 9.328125 16.59375 8.109375 
Q 21.484375 6.890625 26.8125 6.890625 
Q 36.078125 6.890625 40.9375 10.546875 
Q 45.796875 14.203125 45.796875 21.1875 
Q 45.796875 27.640625 41.28125 31.265625 
Q 36.765625 34.90625 28.71875 34.90625 
L 20.21875 34.90625 
L 20.21875 43.015625 
L 29.109375 43.015625 
Q 36.375 43.015625 40.234375 45.921875 
Q 44.09375 48.828125 44.09375 54.296875 
Q 44.09375 59.90625 40.109375 62.90625 
Q 36.140625 65.921875 28.71875 65.921875 
Q 24.65625 65.921875 20.015625 65.03125 
Q 15.375 64.15625 9.8125 62.3125 
L 9.8125 71.09375 
Q 15.4375 72.65625 20.34375 73.4375 
Q 25.25 74.21875 29.59375 74.21875 
Q 40.828125 74.21875 47.359375 69.109375 
Q 53.90625 64.015625 53.90625 55.328125 
Q 53.90625 49.265625 50.4375 45.09375 
Q 46.96875 40.921875 40.578125 39.3125 
" id="BitstreamVeraSans-Roman-33"/>
      </defs>
      <g transform="translate(247.245 337.118125)scale(0.12 -0.12)">
       <use xlink:href="#BitstreamVeraSans-Roman-33"/>
       <use x="63.623046875" xlink:href="#BitstreamVeraSans-Roman-30"/>
      </g>
     </g>
    </g>
    <g id="xtick_5">
     <g id="line2d_13">
      <g>
       <use style="stroke:#000000;stroke-width:0.5;" x="321.84" xlink:href="#m07208bf6b2" y="324.0"/>
      </g>
     </g>
     <g id="line2d_14">
      <g>
       <use style="stroke:#000000;stroke-width:0.5;" x="321.84" xlink:href="#mf530a0c709" y="36.0"/>
      </g>
     </g>
     <g id="text_5">
      <!-- 40 -->
      <defs>
       <path d="M 37.796875 64.3125 
L 12.890625 25.390625 
L 37.796875 25.390625 
z
M 35.203125 72.90625 
L 47.609375 72.90625 
L 47.609375 25.390625 
L 58.015625 25.390625 
L 58.015625 17.1875 
L 47.609375 17.1875 
L 47.609375 0 
L 37.796875 0 
L 37.796875 17.1875 
L 4.890625 17.1875 
L 4.890625 26.703125 
z
" id="BitstreamVeraSans-Roman-34"/>
      </defs>
      <g transform="translate(314.205 337.118125)scale(0.12 -0.12)">
       <use xlink:href="#BitstreamVeraSans-Roman-34"/>
       <use x="63.623046875" xlink:href="#BitstreamVeraSans-Roman-30"/>
      </g>
     </g>
    </g>
    <g id="xtick_6">
     <g id="line2d_15">
      <g>
       <use style="stroke:#000000;stroke-width:0.5;" x="388.8" xlink:href="#m07208bf6b2" y="324.0"/>
      </g>
     </g>
     <g id="line2d_16">
      <g>
       <use style="stroke:#000000;stroke-width:0.5;" x="388.8" xlink:href="#mf530a0c709" y="36.0"/>
      </g>
     </g>
     <g id="text_6">
      <!-- 50 -->
      <defs>
       <path d="M 10.796875 72.90625 
L 49.515625 72.90625 
L 49.515625 64.59375 
L 19.828125 64.59375 
L 19.828125 46.734375 
Q 21.96875 47.46875 24.109375 47.828125 
Q 26.265625 48.1875 28.421875 48.1875 
Q 40.625 48.1875 47.75 41.5 
Q 54.890625 34.8125 54.890625 23.390625 
Q 54.890625 11.625 47.5625 5.09375 
Q 40.234375 -1.421875 26.90625 -1.421875 
Q 22.3125 -1.421875 17.546875 -0.640625 
Q 12.796875 0.140625 7.71875 1.703125 
L 7.71875 11.625 
Q 12.109375 9.234375 16.796875 8.0625 
Q 21.484375 6.890625 26.703125 6.890625 
Q 35.15625 6.890625 40.078125 11.328125 
Q 45.015625 15.765625 45.015625 23.390625 
Q 45.015625 31 40.078125 35.4375 
Q 35.15625 39.890625 26.703125 39.890625 
Q 22.75 39.890625 18.8125 39.015625 
Q 14.890625 38.140625 10.796875 36.28125 
z
" id="BitstreamVeraSans-Roman-35"/>
      </defs>
      <g transform="translate(381.165 337.118125)scale(0.12 -0.12)">
       <use xlink:href="#BitstreamVeraSans-Roman-35"/>
       <use x="63.623046875" xlink:href="#BitstreamVeraSans-Roman-30"/>
      </g>
     </g>
    </g>
    <g id="text_7">
     <!-- center distance [pixels] -->
     <defs>
      <path d="M 56.203125 29.59375 
L 56.203125 25.203125 
L 14.890625 25.203125 
Q 15.484375 15.921875 20.484375 11.0625 
Q 25.484375 6.203125 34.421875 6.203125 
Q 39.59375 6.203125 44.453125 7.46875 
Q 49.3125 8.734375 54.109375 11.28125 
L 54.109375 2.78125 
Q 49.265625 0.734375 44.1875 -0.34375 
Q 39.109375 -1.421875 33.890625 -1.421875 
Q 20.796875 -1.421875 13.15625 6.1875 
Q 5.515625 13.8125 5.515625 26.8125 
Q 5.515625 40.234375 12.765625 48.109375 
Q 20.015625 56 32.328125 56 
Q 43.359375 56 49.78125 48.890625 
Q 56.203125 41.796875 56.203125 29.59375 
M 47.21875 32.234375 
Q 47.125 39.59375 43.09375 43.984375 
Q 39.0625 48.390625 32.421875 48.390625 
Q 24.90625 48.390625 20.390625 44.140625 
Q 15.875 39.890625 15.1875 32.171875 
z
" id="BitstreamVeraSans-Roman-65"/>
      <path d="M 34.28125 27.484375 
Q 23.390625 27.484375 19.1875 25 
Q 14.984375 22.515625 14.984375 16.5 
Q 14.984375 11.71875 18.140625 8.90625 
Q 21.296875 6.109375 26.703125 6.109375 
Q 34.1875 6.109375 38.703125 11.40625 
Q 43.21875 16.703125 43.21875 25.484375 
L 43.21875 27.484375 
z
M 52.203125 31.203125 
L 52.203125 0 
L 43.21875 0 
L 43.21875 8.296875 
Q 40.140625 3.328125 35.546875 0.953125 
Q 30.953125 -1.421875 24.3125 -1.421875 
Q 15.921875 -1.421875 10.953125 3.296875 
Q 6 8.015625 6 15.921875 
Q 6 25.140625 12.171875 29.828125 
Q 18.359375 34.515625 30.609375 34.515625 
L 43.21875 34.515625 
L 43.21875 35.40625 
Q 43.21875 41.609375 39.140625 45 
Q 35.0625 48.390625 27.6875 48.390625 
Q 23 48.390625 18.546875 47.265625 
Q 14.109375 46.140625 10.015625 43.890625 
L 10.015625 52.203125 
Q 14.9375 54.109375 19.578125 55.046875 
Q 24.21875 56 28.609375 56 
Q 40.484375 56 46.34375 49.84375 
Q 52.203125 43.703125 52.203125 31.203125 
" id="BitstreamVeraSans-Roman-61"/>
      <path d="M 54.890625 54.6875 
L 35.109375 28.078125 
L 55.90625 0 
L 45.3125 0 
L 29.390625 21.484375 
L 13.484375 0 
L 2.875 0 
L 24.125 28.609375 
L 4.6875 54.6875 
L 15.28125 54.6875 
L 29.78125 35.203125 
L 44.28125 54.6875 
z
" id="BitstreamVeraSans-Roman-78"/>
      <path d="M 18.3125 70.21875 
L 18.3125 54.6875 
L 36.8125 54.6875 
L 36.8125 47.703125 
L 18.3125 47.703125 
L 18.3125 18.015625 
Q 18.3125 11.328125 20.140625 9.421875 
Q 21.96875 7.515625 27.59375 7.515625 
L 36.8125 7.515625 
L 36.8125 0 
L 27.59375 0 
Q 17.1875 0 13.234375 3.875 
Q 9.28125 7.765625 9.28125 18.015625 
L 9.28125 47.703125 
L 2.6875 47.703125 
L 2.6875 54.6875 
L 9.28125 54.6875 
L 9.28125 70.21875 
z
" id="BitstreamVeraSans-Roman-74"/>
      <path d="M 48.78125 52.59375 
L 48.78125 44.1875 
Q 44.96875 46.296875 41.140625 47.34375 
Q 37.3125 48.390625 33.40625 48.390625 
Q 24.65625 48.390625 19.8125 42.84375 
Q 14.984375 37.3125 14.984375 27.296875 
Q 14.984375 17.28125 19.8125 11.734375 
Q 24.65625 6.203125 33.40625 6.203125 
Q 37.3125 6.203125 41.140625 7.25 
Q 44.96875 8.296875 48.78125 10.40625 
L 48.78125 2.09375 
Q 45.015625 0.34375 40.984375 -0.53125 
Q 36.96875 -1.421875 32.421875 -1.421875 
Q 20.0625 -1.421875 12.78125 6.34375 
Q 5.515625 14.109375 5.515625 27.296875 
Q 5.515625 40.671875 12.859375 48.328125 
Q 20.21875 56 33.015625 56 
Q 37.15625 56 41.109375 55.140625 
Q 45.0625 54.296875 48.78125 52.59375 
" id="BitstreamVeraSans-Roman-63"/>
      <path d="M 54.890625 33.015625 
L 54.890625 0 
L 45.90625 0 
L 45.90625 32.71875 
Q 45.90625 40.484375 42.875 44.328125 
Q 39.84375 48.1875 33.796875 48.1875 
Q 26.515625 48.1875 22.3125 43.546875 
Q 18.109375 38.921875 18.109375 30.90625 
L 18.109375 0 
L 9.078125 0 
L 9.078125 54.6875 
L 18.109375 54.6875 
L 18.109375 46.1875 
Q 21.34375 51.125 25.703125 53.5625 
Q 30.078125 56 35.796875 56 
Q 45.21875 56 50.046875 50.171875 
Q 54.890625 44.34375 54.890625 33.015625 
" id="BitstreamVeraSans-Roman-6e"/>
      <path d="M 9.421875 54.6875 
L 18.40625 54.6875 
L 18.40625 0 
L 9.421875 0 
z
M 9.421875 75.984375 
L 18.40625 75.984375 
L 18.40625 64.59375 
L 9.421875 64.59375 
z
" id="BitstreamVeraSans-Roman-69"/>
      <path id="BitstreamVeraSans-Roman-20"/>
      <path d="M 9.421875 75.984375 
L 18.40625 75.984375 
L 18.40625 0 
L 9.421875 0 
z
" id="BitstreamVeraSans-Roman-6c"/>
      <path d="M 18.109375 8.203125 
L 18.109375 -20.796875 
L 9.078125 -20.796875 
L 9.078125 54.6875 
L 18.109375 54.6875 
L 18.109375 46.390625 
Q 20.953125 51.265625 25.265625 53.625 
Q 29.59375 56 35.59375 56 
Q 45.5625 56 51.78125 48.09375 
Q 58.015625 40.1875 58.015625 27.296875 
Q 58.015625 14.40625 51.78125 6.484375 
Q 45.5625 -1.421875 35.59375 -1.421875 
Q 29.59375 -1.421875 25.265625 0.953125 
Q 20.953125 3.328125 18.109375 8.203125 
M 48.6875 27.296875 
Q 48.6875 37.203125 44.609375 42.84375 
Q 40.53125 48.484375 33.40625 48.484375 
Q 26.265625 48.484375 22.1875 42.84375 
Q 18.109375 37.203125 18.109375 27.296875 
Q 18.109375 17.390625 22.1875 11.75 
Q 26.265625 6.109375 33.40625 6.109375 
Q 40.53125 6.109375 44.609375 11.75 
Q 48.6875 17.390625 48.6875 27.296875 
" id="BitstreamVeraSans-Roman-70"/>
      <path d="M 30.421875 75.984375 
L 30.421875 -13.1875 
L 9.71875 -13.1875 
L 9.71875 -6.203125 
L 21.390625 -6.203125 
L 21.390625 69 
L 9.71875 69 
L 9.71875 75.984375 
z
" id="BitstreamVeraSans-Roman-5d"/>
      <path d="M 44.28125 53.078125 
L 44.28125 44.578125 
Q 40.484375 46.53125 36.375 47.5 
Q 32.28125 48.484375 27.875 48.484375 
Q 21.1875 48.484375 17.84375 46.4375 
Q 14.5 44.390625 14.5 40.28125 
Q 14.5 37.15625 16.890625 35.375 
Q 19.28125 33.59375 26.515625 31.984375 
L 29.59375 31.296875 
Q 39.15625 29.25 43.1875 25.515625 
Q 47.21875 21.78125 47.21875 15.09375 
Q 47.21875 7.46875 41.1875 3.015625 
Q 35.15625 -1.421875 24.609375 -1.421875 
Q 20.21875 -1.421875 15.453125 -0.5625 
Q 10.6875 0.296875 5.421875 2 
L 5.421875 11.28125 
Q 10.40625 8.6875 15.234375 7.390625 
Q 20.0625 6.109375 24.8125 6.109375 
Q 31.15625 6.109375 34.5625 8.28125 
Q 37.984375 10.453125 37.984375 14.40625 
Q 37.984375 18.0625 35.515625 20.015625 
Q 33.0625 21.96875 24.703125 23.78125 
L 21.578125 24.515625 
Q 13.234375 26.265625 9.515625 29.90625 
Q 5.8125 33.546875 5.8125 39.890625 
Q 5.8125 47.609375 11.28125 51.796875 
Q 16.75 56 26.8125 56 
Q 31.78125 56 36.171875 55.265625 
Q 40.578125 54.546875 44.28125 53.078125 
" id="BitstreamVeraSans-Roman-73"/>
      <path d="M 41.109375 46.296875 
Q 39.59375 47.171875 37.8125 47.578125 
Q 36.03125 48 33.890625 48 
Q 26.265625 48 22.1875 43.046875 
Q 18.109375 38.09375 18.109375 28.8125 
L 18.109375 0 
L 9.078125 0 
L 9.078125 54.6875 
L 18.109375 54.6875 
L 18.109375 46.1875 
Q 20.953125 51.171875 25.484375 53.578125 
Q 30.03125 56 36.53125 56 
Q 37.453125 56 38.578125 55.875 
Q 39.703125 55.765625 41.0625 55.515625 
z
" id="BitstreamVeraSans-Roman-72"/>
      <path d="M 45.40625 46.390625 
L 45.40625 75.984375 
L 54.390625 75.984375 
L 54.390625 0 
L 45.40625 0 
L 45.40625 8.203125 
Q 42.578125 3.328125 38.25 0.953125 
Q 33.9375 -1.421875 27.875 -1.421875 
Q 17.96875 -1.421875 11.734375 6.484375 
Q 5.515625 14.40625 5.515625 27.296875 
Q 5.515625 40.1875 11.734375 48.09375 
Q 17.96875 56 27.875 56 
Q 33.9375 56 38.25 53.625 
Q 42.578125 51.265625 45.40625 46.390625 
M 14.796875 27.296875 
Q 14.796875 17.390625 18.875 11.75 
Q 22.953125 6.109375 30.078125 6.109375 
Q 37.203125 6.109375 41.296875 11.75 
Q 45.40625 17.390625 45.40625 27.296875 
Q 45.40625 37.203125 41.296875 42.84375 
Q 37.203125 48.484375 30.078125 48.484375 
Q 22.953125 48.484375 18.875 42.84375 
Q 14.796875 37.203125 14.796875 27.296875 
" id="BitstreamVeraSans-Roman-64"/>
      <path d="M 8.59375 75.984375 
L 29.296875 75.984375 
L 29.296875 69 
L 17.578125 69 
L 17.578125 -6.203125 
L 29.296875 -6.203125 
L 29.296875 -13.1875 
L 8.59375 -13.1875 
z
" id="BitstreamVeraSans-Roman-5b"/>
     </defs>
     <g transform="translate(150.6675 353.731875)scale(0.12 -0.12)">
      <use xlink:href="#BitstreamVeraSans-Roman-63"/>
      <use x="54.98046875" xlink:href="#BitstreamVeraSans-Roman-65"/>
      <use x="116.50390625" xlink:href="#BitstreamVeraSans-Roman-6e"/>
      <use x="179.8828125" xlink:href="#BitstreamVeraSans-Roman-74"/>
      <use x="219.091796875" xlink:href="#BitstreamVeraSans-Roman-65"/>
      <use x="280.615234375" xlink:href="#BitstreamVeraSans-Roman-72"/>
      <use x="321.728515625" xlink:href="#BitstreamVeraSans-Roman-20"/>
      <use x="353.515625" xlink:href="#BitstreamVeraSans-Roman-64"/>
      <use x="416.9921875" xlink:href="#BitstreamVeraSans-Roman-69"/>
      <use x="444.775390625" xlink:href="#BitstreamVeraSans-Roman-73"/>
      <use x="496.875" xlink:href="#BitstreamVeraSans-Roman-74"/>
      <use x="536.083984375" xlink:href="#BitstreamVeraSans-Roman-61"/>
      <use x="597.36328125" xlink:href="#BitstreamVeraSans-Roman-6e"/>
      <use x="660.7421875" xlink:href="#BitstreamVeraSans-Roman-63"/>
      <use x="715.72265625" xlink:href="#BitstreamVeraSans-Roman-65"/>
      <use x="777.24609375" xlink:href="#BitstreamVeraSans-Roman-20"/>
      <use x="809.033203125" xlink:href="#BitstreamVeraSans-Roman-5b"/>
      <use x="848.046875" xlink:href="#BitstreamVeraSans-Roman-70"/>
      <use x="911.5234375" xlink:href="#BitstreamVeraSans-Roman-69"/>
      <use x="939.306640625" xlink:href="#BitstreamVeraSans-Roman-78"/>
      <use x="998.439453125" xlink:href="#BitstreamVeraSans-Roman-65"/>
      <use x="1059.962890625" xlink:href="#BitstreamVeraSans-Roman-6c"/>
      <use x="1087.74609375" xlink:href="#BitstreamVeraSans-Roman-73"/>
      <use x="1139.845703125" xlink:href="#BitstreamVeraSans-Roman-5d"/>
     </g>
    </g>
   </g>
   <g id="matplotlib.axis_2">
    <g id="ytick_1">
     <g id="line2d_17">
      <defs>
       <path d="M 0 0 
L 4 0 
" id="m8141d53bd9" style="stroke:#000000;stroke-width:0.5;"/>
      </defs>
      <g>
       <use style="stroke:#000000;stroke-width:0.5;" x="54.0" xlink:href="#m8141d53bd9" y="324.0"/>
      </g>
     </g>
     <g id="line2d_18">
      <defs>
       <path d="M 0 0 
L -4 0 
" id="md8357e1257" style="stroke:#000000;stroke-width:0.5;"/>
      </defs>
      <g>
       <use style="stroke:#000000;stroke-width:0.5;" x="388.8" xlink:href="#md8357e1257" y="324.0"/>
      </g>
     </g>
     <g id="text_8">
      <!-- 0.0 -->
      <defs>
       <path d="M 10.6875 12.40625 
L 21 12.40625 
L 21 0 
L 10.6875 0 
z
" id="BitstreamVeraSans-Roman-2e"/>
      </defs>
      <g transform="translate(30.91625 327.31125)scale(0.12 -0.12)">
       <use xlink:href="#BitstreamVeraSans-Roman-30"/>
       <use x="63.623046875" xlink:href="#BitstreamVeraSans-Roman-2e"/>
       <use x="95.41015625" xlink:href="#BitstreamVeraSans-Roman-30"/>
      </g>
     </g>
    </g>
    <g id="ytick_2">
     <g id="line2d_19">
      <g>
       <use style="stroke:#000000;stroke-width:0.5;" x="54.0" xlink:href="#m8141d53bd9" y="266.4"/>
      </g>
     </g>
     <g id="line2d_20">
      <g>
       <use style="stroke:#000000;stroke-width:0.5;" x="388.8" xlink:href="#md8357e1257" y="266.4"/>
      </g>
     </g>
     <g id="text_9">
      <!-- 0.2 -->
      <g transform="translate(30.91625 269.71125)scale(0.12 -0.12)">
       <use xlink:href="#BitstreamVeraSans-Roman-30"/>
       <use x="63.623046875" xlink:href="#BitstreamVeraSans-Roman-2e"/>
       <use x="95.41015625" xlink:href="#BitstreamVeraSans-Roman-32"/>
      </g>
     </g>
    </g>
    <g id="ytick_3">
     <g id="line2d_21">
      <g>
       <use style="stroke:#000000;stroke-width:0.5;" x="54.0" xlink:href="#m8141d53bd9" y="208.8"/>
      </g>
     </g>
     <g id="line2d_22">
      <g>
       <use style="stroke:#000000;stroke-width:0.5;" x="388.8" xlink:href="#md8357e1257" y="208.8"/>
      </g>
     </g>
     <g id="text_10">
      <!-- 0.4 -->
      <g transform="translate(30.91625 212.11125)scale(0.12 -0.12)">
       <use xlink:href="#BitstreamVeraSans-Roman-30"/>
       <use x="63.623046875" xlink:href="#BitstreamVeraSans-Roman-2e"/>
       <use x="95.41015625" xlink:href="#BitstreamVeraSans-Roman-34"/>
      </g>
     </g>
    </g>
    <g id="ytick_4">
     <g id="line2d_23">
      <g>
       <use style="stroke:#000000;stroke-width:0.5;" x="54.0" xlink:href="#m8141d53bd9" y="151.2"/>
      </g>
     </g>
     <g id="line2d_24">
      <g>
       <use style="stroke:#000000;stroke-width:0.5;" x="388.8" xlink:href="#md8357e1257" y="151.2"/>
      </g>
     </g>
     <g id="text_11">
      <!-- 0.6 -->
      <defs>
       <path d="M 33.015625 40.375 
Q 26.375 40.375 22.484375 35.828125 
Q 18.609375 31.296875 18.609375 23.390625 
Q 18.609375 15.53125 22.484375 10.953125 
Q 26.375 6.390625 33.015625 6.390625 
Q 39.65625 6.390625 43.53125 10.953125 
Q 47.40625 15.53125 47.40625 23.390625 
Q 47.40625 31.296875 43.53125 35.828125 
Q 39.65625 40.375 33.015625 40.375 
M 52.59375 71.296875 
L 52.59375 62.3125 
Q 48.875 64.0625 45.09375 64.984375 
Q 41.3125 65.921875 37.59375 65.921875 
Q 27.828125 65.921875 22.671875 59.328125 
Q 17.53125 52.734375 16.796875 39.40625 
Q 19.671875 43.65625 24.015625 45.921875 
Q 28.375 48.1875 33.59375 48.1875 
Q 44.578125 48.1875 50.953125 41.515625 
Q 57.328125 34.859375 57.328125 23.390625 
Q 57.328125 12.15625 50.6875 5.359375 
Q 44.046875 -1.421875 33.015625 -1.421875 
Q 20.359375 -1.421875 13.671875 8.265625 
Q 6.984375 17.96875 6.984375 36.375 
Q 6.984375 53.65625 15.1875 63.9375 
Q 23.390625 74.21875 37.203125 74.21875 
Q 40.921875 74.21875 44.703125 73.484375 
Q 48.484375 72.75 52.59375 71.296875 
" id="BitstreamVeraSans-Roman-36"/>
      </defs>
      <g transform="translate(30.91625 154.51125)scale(0.12 -0.12)">
       <use xlink:href="#BitstreamVeraSans-Roman-30"/>
       <use x="63.623046875" xlink:href="#BitstreamVeraSans-Roman-2e"/>
       <use x="95.41015625" xlink:href="#BitstreamVeraSans-Roman-36"/>
      </g>
     </g>
    </g>
    <g id="ytick_5">
     <g id="line2d_25">
      <g>
       <use style="stroke:#000000;stroke-width:0.5;" x="54.0" xlink:href="#m8141d53bd9" y="93.6"/>
      </g>
     </g>
     <g id="line2d_26">
      <g>
       <use style="stroke:#000000;stroke-width:0.5;" x="388.8" xlink:href="#md8357e1257" y="93.6"/>
      </g>
     </g>
     <g id="text_12">
      <!-- 0.8 -->
      <defs>
       <path d="M 31.78125 34.625 
Q 24.75 34.625 20.71875 30.859375 
Q 16.703125 27.09375 16.703125 20.515625 
Q 16.703125 13.921875 20.71875 10.15625 
Q 24.75 6.390625 31.78125 6.390625 
Q 38.8125 6.390625 42.859375 10.171875 
Q 46.921875 13.96875 46.921875 20.515625 
Q 46.921875 27.09375 42.890625 30.859375 
Q 38.875 34.625 31.78125 34.625 
M 21.921875 38.8125 
Q 15.578125 40.375 12.03125 44.71875 
Q 8.5 49.078125 8.5 55.328125 
Q 8.5 64.0625 14.71875 69.140625 
Q 20.953125 74.21875 31.78125 74.21875 
Q 42.671875 74.21875 48.875 69.140625 
Q 55.078125 64.0625 55.078125 55.328125 
Q 55.078125 49.078125 51.53125 44.71875 
Q 48 40.375 41.703125 38.8125 
Q 48.828125 37.15625 52.796875 32.3125 
Q 56.78125 27.484375 56.78125 20.515625 
Q 56.78125 9.90625 50.3125 4.234375 
Q 43.84375 -1.421875 31.78125 -1.421875 
Q 19.734375 -1.421875 13.25 4.234375 
Q 6.78125 9.90625 6.78125 20.515625 
Q 6.78125 27.484375 10.78125 32.3125 
Q 14.796875 37.15625 21.921875 38.8125 
M 18.3125 54.390625 
Q 18.3125 48.734375 21.84375 45.5625 
Q 25.390625 42.390625 31.78125 42.390625 
Q 38.140625 42.390625 41.71875 45.5625 
Q 45.3125 48.734375 45.3125 54.390625 
Q 45.3125 60.0625 41.71875 63.234375 
Q 38.140625 66.40625 31.78125 66.40625 
Q 25.390625 66.40625 21.84375 63.234375 
Q 18.3125 60.0625 18.3125 54.390625 
" id="BitstreamVeraSans-Roman-38"/>
      </defs>
      <g transform="translate(30.91625 96.91125)scale(0.12 -0.12)">
       <use xlink:href="#BitstreamVeraSans-Roman-30"/>
       <use x="63.623046875" xlink:href="#BitstreamVeraSans-Roman-2e"/>
       <use x="95.41015625" xlink:href="#BitstreamVeraSans-Roman-38"/>
      </g>
     </g>
    </g>
    <g id="ytick_6">
     <g id="line2d_27">
      <g>
       <use style="stroke:#000000;stroke-width:0.5;" x="54.0" xlink:href="#m8141d53bd9" y="36.0"/>
      </g>
     </g>
     <g id="line2d_28">
      <g>
       <use style="stroke:#000000;stroke-width:0.5;" x="388.8" xlink:href="#md8357e1257" y="36.0"/>
      </g>
     </g>
     <g id="text_13">
      <!-- 1.0 -->
      <g transform="translate(30.91625 39.31125)scale(0.12 -0.12)">
       <use xlink:href="#BitstreamVeraSans-Roman-31"/>
       <use x="63.623046875" xlink:href="#BitstreamVeraSans-Roman-2e"/>
       <use x="95.41015625" xlink:href="#BitstreamVeraSans-Roman-30"/>
      </g>
     </g>
    </g>
    <g id="text_14">
     <!-- occurrence -->
     <defs>
      <path d="M 8.5 21.578125 
L 8.5 54.6875 
L 17.484375 54.6875 
L 17.484375 21.921875 
Q 17.484375 14.15625 20.5 10.265625 
Q 23.53125 6.390625 29.59375 6.390625 
Q 36.859375 6.390625 41.078125 11.03125 
Q 45.3125 15.671875 45.3125 23.6875 
L 45.3125 54.6875 
L 54.296875 54.6875 
L 54.296875 0 
L 45.3125 0 
L 45.3125 8.40625 
Q 42.046875 3.421875 37.71875 1 
Q 33.40625 -1.421875 27.6875 -1.421875 
Q 18.265625 -1.421875 13.375 4.4375 
Q 8.5 10.296875 8.5 21.578125 
" id="BitstreamVeraSans-Roman-75"/>
      <path d="M 30.609375 48.390625 
Q 23.390625 48.390625 19.1875 42.75 
Q 14.984375 37.109375 14.984375 27.296875 
Q 14.984375 17.484375 19.15625 11.84375 
Q 23.34375 6.203125 30.609375 6.203125 
Q 37.796875 6.203125 41.984375 11.859375 
Q 46.1875 17.53125 46.1875 27.296875 
Q 46.1875 37.015625 41.984375 42.703125 
Q 37.796875 48.390625 30.609375 48.390625 
M 30.609375 56 
Q 42.328125 56 49.015625 48.375 
Q 55.71875 40.765625 55.71875 27.296875 
Q 55.71875 13.875 49.015625 6.21875 
Q 42.328125 -1.421875 30.609375 -1.421875 
Q 18.84375 -1.421875 12.171875 6.21875 
Q 5.515625 13.875 5.515625 27.296875 
Q 5.515625 40.765625 12.171875 48.375 
Q 18.84375 56 30.609375 56 
" id="BitstreamVeraSans-Roman-6f"/>
     </defs>
     <g transform="translate(23.420625 213.4875)rotate(-90.0)scale(0.12 -0.12)">
      <use xlink:href="#BitstreamVeraSans-Roman-6f"/>
      <use x="61.181640625" xlink:href="#BitstreamVeraSans-Roman-63"/>
      <use x="116.162109375" xlink:href="#BitstreamVeraSans-Roman-63"/>
      <use x="171.142578125" xlink:href="#BitstreamVeraSans-Roman-75"/>
      <use x="234.521484375" xlink:href="#BitstreamVeraSans-Roman-72"/>
      <use x="275.619140625" xlink:href="#BitstreamVeraSans-Roman-72"/>
      <use x="316.701171875" xlink:href="#BitstreamVeraSans-Roman-65"/>
      <use x="378.224609375" xlink:href="#BitstreamVeraSans-Roman-6e"/>
      <use x="441.603515625" xlink:href="#BitstreamVeraSans-Roman-63"/>
      <use x="496.583984375" xlink:href="#BitstreamVeraSans-Roman-65"/>
     </g>
    </g>
   </g>
   <g id="text_15">
    <!-- FCNT - 3 evaluations, precision -->
    <defs>
     <path d="M 9.8125 72.90625 
L 51.703125 72.90625 
L 51.703125 64.59375 
L 19.671875 64.59375 
L 19.671875 43.109375 
L 48.578125 43.109375 
L 48.578125 34.8125 
L 19.671875 34.8125 
L 19.671875 0 
L 9.8125 0 
z
" id="BitstreamVeraSans-Roman-46"/>
     <path d="M 4.890625 31.390625 
L 31.203125 31.390625 
L 31.203125 23.390625 
L 4.890625 23.390625 
z
" id="BitstreamVeraSans-Roman-2d"/>
     <path d="M 64.40625 67.28125 
L 64.40625 56.890625 
Q 59.421875 61.53125 53.78125 63.8125 
Q 48.140625 66.109375 41.796875 66.109375 
Q 29.296875 66.109375 22.65625 58.46875 
Q 16.015625 50.828125 16.015625 36.375 
Q 16.015625 21.96875 22.65625 14.328125 
Q 29.296875 6.6875 41.796875 6.6875 
Q 48.140625 6.6875 53.78125 8.984375 
Q 59.421875 11.28125 64.40625 15.921875 
L 64.40625 5.609375 
Q 59.234375 2.09375 53.4375 0.328125 
Q 47.65625 -1.421875 41.21875 -1.421875 
Q 24.65625 -1.421875 15.125 8.703125 
Q 5.609375 18.84375 5.609375 36.375 
Q 5.609375 53.953125 15.125 64.078125 
Q 24.65625 74.21875 41.21875 74.21875 
Q 47.75 74.21875 53.53125 72.484375 
Q 59.328125 70.75 64.40625 67.28125 
" id="BitstreamVeraSans-Roman-43"/>
     <path d="M -0.296875 72.90625 
L 61.375 72.90625 
L 61.375 64.59375 
L 35.5 64.59375 
L 35.5 0 
L 25.59375 0 
L 25.59375 64.59375 
L -0.296875 64.59375 
z
" id="BitstreamVeraSans-Roman-54"/>
     <path d="M 2.984375 54.6875 
L 12.5 54.6875 
L 29.59375 8.796875 
L 46.6875 54.6875 
L 56.203125 54.6875 
L 35.6875 0 
L 23.484375 0 
z
" id="BitstreamVeraSans-Roman-76"/>
     <path d="M 11.71875 12.40625 
L 22.015625 12.40625 
L 22.015625 4 
L 14.015625 -11.625 
L 7.71875 -11.625 
L 11.71875 4 
z
" id="BitstreamVeraSans-Roman-2c"/>
     <path d="M 9.8125 72.90625 
L 23.09375 72.90625 
L 55.421875 11.921875 
L 55.421875 72.90625 
L 64.984375 72.90625 
L 64.984375 0 
L 51.703125 0 
L 19.390625 60.984375 
L 19.390625 0 
L 9.8125 0 
z
" id="BitstreamVeraSans-Roman-4e"/>
    </defs>
    <g transform="translate(109.56825 31.0)scale(0.144 -0.144)">
     <use xlink:href="#BitstreamVeraSans-Roman-46"/>
     <use x="57.51953125" xlink:href="#BitstreamVeraSans-Roman-43"/>
     <use x="127.34375" xlink:href="#BitstreamVeraSans-Roman-4e"/>
     <use x="202.1484375" xlink:href="#BitstreamVeraSans-Roman-54"/>
     <use x="263.232421875" xlink:href="#BitstreamVeraSans-Roman-20"/>
     <use x="295.01953125" xlink:href="#BitstreamVeraSans-Roman-2d"/>
     <use x="331.103515625" xlink:href="#BitstreamVeraSans-Roman-20"/>
     <use x="362.890625" xlink:href="#BitstreamVeraSans-Roman-33"/>
     <use x="426.513671875" xlink:href="#BitstreamVeraSans-Roman-20"/>
     <use x="458.30078125" xlink:href="#BitstreamVeraSans-Roman-65"/>
     <use x="519.82421875" xlink:href="#BitstreamVeraSans-Roman-76"/>
     <use x="579.00390625" xlink:href="#BitstreamVeraSans-Roman-61"/>
     <use x="640.283203125" xlink:href="#BitstreamVeraSans-Roman-6c"/>
     <use x="668.06640625" xlink:href="#BitstreamVeraSans-Roman-75"/>
     <use x="731.4453125" xlink:href="#BitstreamVeraSans-Roman-61"/>
     <use x="792.724609375" xlink:href="#BitstreamVeraSans-Roman-74"/>
     <use x="831.93359375" xlink:href="#BitstreamVeraSans-Roman-69"/>
     <use x="859.716796875" xlink:href="#BitstreamVeraSans-Roman-6f"/>
     <use x="920.8984375" xlink:href="#BitstreamVeraSans-Roman-6e"/>
     <use x="984.27734375" xlink:href="#BitstreamVeraSans-Roman-73"/>
     <use x="1036.376953125" xlink:href="#BitstreamVeraSans-Roman-2c"/>
     <use x="1068.1640625" xlink:href="#BitstreamVeraSans-Roman-20"/>
     <use x="1099.951171875" xlink:href="#BitstreamVeraSans-Roman-70"/>
     <use x="1163.427734375" xlink:href="#BitstreamVeraSans-Roman-72"/>
     <use x="1204.509765625" xlink:href="#BitstreamVeraSans-Roman-65"/>
     <use x="1266.033203125" xlink:href="#BitstreamVeraSans-Roman-63"/>
     <use x="1321.013671875" xlink:href="#BitstreamVeraSans-Roman-69"/>
     <use x="1348.796875" xlink:href="#BitstreamVeraSans-Roman-73"/>
     <use x="1400.896484375" xlink:href="#BitstreamVeraSans-Roman-69"/>
     <use x="1428.6796875" xlink:href="#BitstreamVeraSans-Roman-6f"/>
     <use x="1489.861328125" xlink:href="#BitstreamVeraSans-Roman-6e"/>
    </g>
   </g>
   <g id="legend_1">
    <g id="patch_7">
     <path d="M 193.463125 316.8 
L 381.6 316.8 
L 381.6 249.159 
L 193.463125 249.159 
z
" style="fill:#ffffff;stroke:#000000;stroke-linejoin:miter;"/>
    </g>
    <g id="patch_8">
     <path d="M 199.223125 265.86075 
L 228.023125 265.86075 
L 228.023125 255.78075 
L 199.223125 255.78075 
z
" style="fill:#ff0000;stroke:#ff0000;stroke-linejoin:miter;"/>
    </g>
    <g id="text_16">
     <!-- 0.842 - tb100(p50) -->
     <defs>
      <path d="M 48.6875 27.296875 
Q 48.6875 37.203125 44.609375 42.84375 
Q 40.53125 48.484375 33.40625 48.484375 
Q 26.265625 48.484375 22.1875 42.84375 
Q 18.109375 37.203125 18.109375 27.296875 
Q 18.109375 17.390625 22.1875 11.75 
Q 26.265625 6.109375 33.40625 6.109375 
Q 40.53125 6.109375 44.609375 11.75 
Q 48.6875 17.390625 48.6875 27.296875 
M 18.109375 46.390625 
Q 20.953125 51.265625 25.265625 53.625 
Q 29.59375 56 35.59375 56 
Q 45.5625 56 51.78125 48.09375 
Q 58.015625 40.1875 58.015625 27.296875 
Q 58.015625 14.40625 51.78125 6.484375 
Q 45.5625 -1.421875 35.59375 -1.421875 
Q 29.59375 -1.421875 25.265625 0.953125 
Q 20.953125 3.328125 18.109375 8.203125 
L 18.109375 0 
L 9.078125 0 
L 9.078125 75.984375 
L 18.109375 75.984375 
z
" id="BitstreamVeraSans-Roman-62"/>
      <path d="M 8.015625 75.875 
L 15.828125 75.875 
Q 23.140625 64.359375 26.78125 53.3125 
Q 30.421875 42.28125 30.421875 31.390625 
Q 30.421875 20.453125 26.78125 9.375 
Q 23.140625 -1.703125 15.828125 -13.1875 
L 8.015625 -13.1875 
Q 14.5 -2 17.703125 9.0625 
Q 20.90625 20.125 20.90625 31.390625 
Q 20.90625 42.671875 17.703125 53.65625 
Q 14.5 64.65625 8.015625 75.875 
" id="BitstreamVeraSans-Roman-29"/>
      <path d="M 31 75.875 
Q 24.46875 64.65625 21.28125 53.65625 
Q 18.109375 42.671875 18.109375 31.390625 
Q 18.109375 20.125 21.3125 9.0625 
Q 24.515625 -2 31 -13.1875 
L 23.1875 -13.1875 
Q 15.875 -1.703125 12.234375 9.375 
Q 8.59375 20.453125 8.59375 31.390625 
Q 8.59375 42.28125 12.203125 53.3125 
Q 15.828125 64.359375 23.1875 75.875 
z
" id="BitstreamVeraSans-Roman-28"/>
     </defs>
     <g transform="translate(239.543125 265.86075)scale(0.144 -0.144)">
      <use xlink:href="#BitstreamVeraSans-Roman-30"/>
      <use x="63.623046875" xlink:href="#BitstreamVeraSans-Roman-2e"/>
      <use x="95.41015625" xlink:href="#BitstreamVeraSans-Roman-38"/>
      <use x="159.033203125" xlink:href="#BitstreamVeraSans-Roman-34"/>
      <use x="222.65625" xlink:href="#BitstreamVeraSans-Roman-32"/>
      <use x="286.279296875" xlink:href="#BitstreamVeraSans-Roman-20"/>
      <use x="318.06640625" xlink:href="#BitstreamVeraSans-Roman-2d"/>
      <use x="354.150390625" xlink:href="#BitstreamVeraSans-Roman-20"/>
      <use x="385.9375" xlink:href="#BitstreamVeraSans-Roman-74"/>
      <use x="425.146484375" xlink:href="#BitstreamVeraSans-Roman-62"/>
      <use x="488.623046875" xlink:href="#BitstreamVeraSans-Roman-31"/>
      <use x="552.24609375" xlink:href="#BitstreamVeraSans-Roman-30"/>
      <use x="615.869140625" xlink:href="#BitstreamVeraSans-Roman-30"/>
      <use x="679.4921875" xlink:href="#BitstreamVeraSans-Roman-28"/>
      <use x="718.505859375" xlink:href="#BitstreamVeraSans-Roman-70"/>
      <use x="781.982421875" xlink:href="#BitstreamVeraSans-Roman-35"/>
      <use x="845.60546875" xlink:href="#BitstreamVeraSans-Roman-30"/>
      <use x="909.228515625" xlink:href="#BitstreamVeraSans-Roman-29"/>
     </g>
    </g>
    <g id="patch_9">
     <path d="M 199.223125 286.99725 
L 228.023125 286.99725 
L 228.023125 276.91725 
L 199.223125 276.91725 
z
" style="fill:#0000ff;stroke:#0000ff;stroke-linejoin:miter;"/>
    </g>
    <g id="text_17">
     <!-- 0.761 - tb100(full) -->
     <defs>
      <path d="M 37.109375 75.984375 
L 37.109375 68.5 
L 28.515625 68.5 
Q 23.6875 68.5 21.796875 66.546875 
Q 19.921875 64.59375 19.921875 59.515625 
L 19.921875 54.6875 
L 34.71875 54.6875 
L 34.71875 47.703125 
L 19.921875 47.703125 
L 19.921875 0 
L 10.890625 0 
L 10.890625 47.703125 
L 2.296875 47.703125 
L 2.296875 54.6875 
L 10.890625 54.6875 
L 10.890625 58.5 
Q 10.890625 67.625 15.140625 71.796875 
Q 19.390625 75.984375 28.609375 75.984375 
z
" id="BitstreamVeraSans-Roman-66"/>
      <path d="M 8.203125 72.90625 
L 55.078125 72.90625 
L 55.078125 68.703125 
L 28.609375 0 
L 18.3125 0 
L 43.21875 64.59375 
L 8.203125 64.59375 
z
" id="BitstreamVeraSans-Roman-37"/>
     </defs>
     <g transform="translate(239.543125 286.99725)scale(0.144 -0.144)">
      <use xlink:href="#BitstreamVeraSans-Roman-30"/>
      <use x="63.623046875" xlink:href="#BitstreamVeraSans-Roman-2e"/>
      <use x="95.41015625" xlink:href="#BitstreamVeraSans-Roman-37"/>
      <use x="159.033203125" xlink:href="#BitstreamVeraSans-Roman-36"/>
      <use x="222.65625" xlink:href="#BitstreamVeraSans-Roman-31"/>
      <use x="286.279296875" xlink:href="#BitstreamVeraSans-Roman-20"/>
      <use x="318.06640625" xlink:href="#BitstreamVeraSans-Roman-2d"/>
      <use x="354.150390625" xlink:href="#BitstreamVeraSans-Roman-20"/>
      <use x="385.9375" xlink:href="#BitstreamVeraSans-Roman-74"/>
      <use x="425.146484375" xlink:href="#BitstreamVeraSans-Roman-62"/>
      <use x="488.623046875" xlink:href="#BitstreamVeraSans-Roman-31"/>
      <use x="552.24609375" xlink:href="#BitstreamVeraSans-Roman-30"/>
      <use x="615.869140625" xlink:href="#BitstreamVeraSans-Roman-30"/>
      <use x="679.4921875" xlink:href="#BitstreamVeraSans-Roman-28"/>
      <use x="718.505859375" xlink:href="#BitstreamVeraSans-Roman-66"/>
      <use x="753.7109375" xlink:href="#BitstreamVeraSans-Roman-75"/>
      <use x="817.08984375" xlink:href="#BitstreamVeraSans-Roman-6c"/>
      <use x="844.873046875" xlink:href="#BitstreamVeraSans-Roman-6c"/>
      <use x="872.65625" xlink:href="#BitstreamVeraSans-Roman-29"/>
     </g>
    </g>
    <g id="patch_10">
     <path d="M 199.223125 308.13375 
L 228.023125 308.13375 
L 228.023125 298.05375 
L 199.223125 298.05375 
z
" style="fill:#ffa500;stroke:#ffa500;stroke-linejoin:miter;"/>
    </g>
    <g id="text_18">
     <!-- 0.681 - tb100(n50) -->
     <g transform="translate(239.543125 308.13375)scale(0.144 -0.144)">
      <use xlink:href="#BitstreamVeraSans-Roman-30"/>
      <use x="63.623046875" xlink:href="#BitstreamVeraSans-Roman-2e"/>
      <use x="95.41015625" xlink:href="#BitstreamVeraSans-Roman-36"/>
      <use x="159.033203125" xlink:href="#BitstreamVeraSans-Roman-38"/>
      <use x="222.65625" xlink:href="#BitstreamVeraSans-Roman-31"/>
      <use x="286.279296875" xlink:href="#BitstreamVeraSans-Roman-20"/>
      <use x="318.06640625" xlink:href="#BitstreamVeraSans-Roman-2d"/>
      <use x="354.150390625" xlink:href="#BitstreamVeraSans-Roman-20"/>
      <use x="385.9375" xlink:href="#BitstreamVeraSans-Roman-74"/>
      <use x="425.146484375" xlink:href="#BitstreamVeraSans-Roman-62"/>
      <use x="488.623046875" xlink:href="#BitstreamVeraSans-Roman-31"/>
      <use x="552.24609375" xlink:href="#BitstreamVeraSans-Roman-30"/>
      <use x="615.869140625" xlink:href="#BitstreamVeraSans-Roman-30"/>
      <use x="679.4921875" xlink:href="#BitstreamVeraSans-Roman-28"/>
      <use x="718.505859375" xlink:href="#BitstreamVeraSans-Roman-6e"/>
      <use x="781.884765625" xlink:href="#BitstreamVeraSans-Roman-35"/>
      <use x="845.5078125" xlink:href="#BitstreamVeraSans-Roman-30"/>
      <use x="909.130859375" xlink:href="#BitstreamVeraSans-Roman-29"/>
     </g>
    </g>
   </g>
  </g>
 </g>
 <defs>
  <clipPath id="p3b5cdf15a0">
   <rect height="288.0" width="334.8" x="54.0" y="36.0"/>
  </clipPath>
 </defs>
</svg>
