<?xml version="1.0" encoding="utf-8" standalone="no"?>
<!DOCTYPE svg PUBLIC "-//W3C//DTD SVG 1.1//EN"
  "http://www.w3.org/Graphics/SVG/1.1/DTD/svg11.dtd">
<!-- Created with matplotlib (http://matplotlib.org/) -->
<svg height="360pt" version="1.1" viewBox="0 0 432 360" width="432pt" xmlns="http://www.w3.org/2000/svg" xmlns:xlink="http://www.w3.org/1999/xlink">
 <defs>
  <style type="text/css">
*{stroke-linecap:butt;stroke-linejoin:round;stroke-miterlimit:100000;}
  </style>
 </defs>
 <g id="figure_1">
  <g id="patch_1">
   <path d="M 0 360 
L 432 360 
L 432 0 
L 0 0 
z
" style="fill:#ffffff;"/>
  </g>
  <g id="axes_1">
   <g id="patch_2">
    <path d="M 54 324 
L 388.8 324 
L 388.8 36 
L 54 36 
z
" style="fill:#ffffff;"/>
   </g>
   <g id="line2d_1">
    <path clip-path="url(#p0f4308f191)" d="M 54 36 
L 54.3348 62.549593 
L 56.0088 62.671545 
L 60.0264 63.273171 
L 62.0352 63.56748 
L 63.3744 63.796748 
L 65.3832 64.59187 
L 66.3876 64.928455 
L 67.392 65.302439 
L 69.4008 65.978862 
L 70.74 66.24878 
L 72.7488 66.822764 
L 73.4184 67.076423 
L 74.7576 67.417886 
L 76.7664 67.804878 
L 78.1056 68.139837 
L 85.4712 70.299187 
L 86.4756 70.539837 
L 87.1452 70.861789 
L 87.8148 71.219512 
L 89.154 71.59187 
L 89.8236 71.946341 
L 91.8324 72.741463 
L 92.502 72.912195 
L 93.8412 73.547967 
L 94.176 73.837398 
L 95.1804 74.089431 
L 95.85 74.356098 
L 107.9028 78.243902 
L 109.242 78.6 
L 110.916 79.139837 
L 112.9248 79.738211 
L 114.5988 80.291057 
L 115.938 80.686179 
L 117.612 81.214634 
L 118.2816 81.502439 
L 119.9556 82.091057 
L 121.9644 82.697561 
L 122.634 82.956098 
L 123.3036 83.356098 
L 127.656 84.692683 
L 129.33 85.245528 
L 129.6648 85.304065 
L 130.6692 85.884553 
L 131.6736 86.209756 
L 134.352 87.320325 
L 135.0216 87.697561 
L 136.026 88.079675 
L 140.3784 89.734959 
L 141.3828 90.15122 
L 142.3872 90.413008 
L 142.722 90.647154 
L 143.3916 90.806504 
L 145.0656 91.635772 
L 145.4004 91.933333 
L 146.07 92.102439 
L 146.4048 92.523577 
L 148.4136 93.229268 
L 150.7572 94.686179 
L 151.4268 94.878049 
L 152.4312 95.565854 
L 153.1008 95.829268 
L 156.4488 97.494309 
L 157.788 97.915447 
L 158.4576 98.305691 
L 159.1272 98.678049 
L 159.462 98.788618 
L 159.7968 99.170732 
L 160.8012 99.629268 
L 161.4708 100.02439 
L 163.1448 100.549593 
L 164.8188 101.370732 
L 165.4884 101.614634 
L 165.8232 101.936585 
L 166.158 102.060163 
L 166.4928 103.505691 
L 167.4972 103.756098 
L 167.832 104.030894 
L 168.1668 104.55935 
L 168.5016 104.691057 
L 168.8364 104.949593 
L 169.1712 105.534959 
L 170.1756 105.908943 
L 170.8452 106.209756 
L 171.5148 106.572358 
L 173.1888 107.435772 
L 176.202 108.835772 
L 176.8716 109.065041 
L 177.2064 109.289431 
L 177.5412 109.721951 
L 179.8848 110.762602 
L 180.2196 110.943089 
L 180.5544 111.44878 
L 183.2328 112.580488 
L 184.2372 113.120325 
L 184.9068 113.373984 
L 185.2416 113.725203 
L 186.5808 114.370732 
L 186.9156 115.617886 
L 187.5852 115.917073 
L 187.92 117.765854 
L 189.2592 118.421138 
L 189.9288 118.75122 
L 190.2636 119.23252 
L 192.942 120.585366 
L 196.6248 122.973984 
L 197.6292 123.518699 
L 197.964 124.235772 
L 200.6424 125.577236 
L 200.9772 125.949593 
L 202.3164 126.557724 
L 202.6512 126.674797 
L 203.3208 127.063415 
L 204.66 127.743089 
L 204.9948 128.160976 
L 205.9992 128.710569 
L 206.6688 129.130081 
L 207.6732 129.622764 
L 208.3428 130.034146 
L 210.0168 131.173984 
L 211.356 131.871545 
L 212.0256 132.261789 
L 214.0344 133.385366 
L 217.0476 135.065041 
L 217.3824 135.494309 
L 218.052 135.869919 
L 219.0564 136.609756 
L 219.3912 137.146341 
L 221.7348 138.518699 
L 228.4308 143.213008 
L 230.7744 144.738211 
L 231.444 145.147967 
L 232.7832 146.043902 
L 233.4528 146.463415 
L 237.4704 149.528455 
L 237.8052 150.177236 
L 238.8096 150.790244 
L 239.4792 151.4 
L 240.4836 152.087805 
L 246.51 156.826016 
L 247.5144 157.777236 
L 253.8756 163.282927 
L 255.5496 164.84878 
L 256.8888 165.926829 
L 264.2544 173.24065 
L 266.598 176.037398 
L 267.6024 177.149593 
L 268.272 177.895935 
L 269.6112 179.437398 
L 269.946 179.704065 
L 271.2852 181.255285 
L 272.6244 182.752846 
L 278.6508 191.013008 
L 285.012 200.312195 
L 286.0164 201.785366 
L 290.034 208.461789 
L 291.0384 210.149593 
L 292.0428 211.686179 
L 295.3908 217.315447 
L 295.7256 217.757724 
L 298.404 222.593496 
L 300.7476 226.629268 
L 301.4172 227.913821 
L 302.0868 229.026016 
L 304.7652 233.866667 
L 305.7696 235.510569 
L 307.4436 238.305691 
L 311.4612 245.115447 
L 312.8004 247.291057 
L 321.84 262.378862 
L 322.1748 263.373984 
L 329.5404 275.147967 
L 330.8796 277.419512 
L 332.5536 279.98374 
L 333.8928 282.123577 
L 340.254 292.211382 
L 341.928 295.017886 
L 343.2672 296.760976 
L 344.2716 298.317073 
L 345.9456 300.344715 
L 347.2848 301.920325 
L 348.2892 303.198374 
L 348.624 303.861789 
L 348.9588 304.201626 
L 349.6284 305.095935 
L 350.9676 306.504065 
L 352.3068 307.865041 
L 354.3156 310.074797 
L 354.9852 310.84878 
L 355.32 311.102439 
L 355.9896 311.790244 
L 356.6592 312.343089 
L 359.0028 314.206504 
L 359.3376 314.517073 
L 359.6724 314.630894 
L 361.3464 316.011382 
L 366.3684 318.936585 
L 367.3728 319.276423 
L 368.0424 319.668293 
L 369.0468 319.993496 
L 370.386 320.62439 
L 371.7252 321.162602 
L 376.4124 322.274797 
L 382.104 323.245528 
L 383.778 323.382114 
L 388.1304 323.495935 
L 388.8 323.495935 
L 388.8 323.495935 
" style="fill:none;stroke:#0000ff;stroke-linecap:square;"/>
   </g>
   <g id="line2d_2">
    <path clip-path="url(#p0f4308f191)" d="M 54 36 
L 54.3348 48.636804 
L 55.674 48.747482 
L 58.3524 49.118579 
L 61.7004 49.509206 
L 66.0528 49.867282 
L 69.066 50.176528 
L 71.0748 50.41416 
L 71.7444 50.55739 
L 72.7488 50.710386 
L 73.4184 50.938252 
L 81.4536 52.364043 
L 83.1276 52.637483 
L 87.1452 53.278763 
L 88.1496 53.565223 
L 90.1584 53.734495 
L 91.4976 53.93632 
L 93.1716 54.118612 
L 93.8412 54.252077 
L 95.1804 54.395307 
L 96.5196 54.58411 
L 98.1936 54.870571 
L 99.198 55.013801 
L 101.2068 55.404428 
L 102.8808 55.586721 
L 104.22 55.928521 
L 104.8896 56.029433 
L 105.5592 56.169408 
L 105.894 56.188939 
L 106.5636 56.42006 
L 107.568 56.726052 
L 112.59 57.816554 
L 113.9292 58.086738 
L 114.264 58.285307 
L 118.2816 59.147943 
L 119.286 59.460446 
L 121.6296 59.838052 
L 122.634 60.231935 
L 135.6912 63.067241 
L 136.3608 63.321149 
L 138.3696 63.646672 
L 138.7044 63.685735 
L 139.0392 63.874538 
L 139.7088 64.014513 
L 140.3784 64.167509 
L 140.7132 64.401885 
L 142.3872 64.701367 
L 144.396 65.199417 
L 144.7308 65.651894 
L 145.0656 65.677936 
L 145.4004 66.198773 
L 146.07 66.325726 
L 146.4048 66.563358 
L 148.4136 66.973517 
L 148.7484 67.29253 
L 149.0832 67.383676 
L 149.418 67.832898 
L 150.0876 67.976128 
L 150.4224 68.386287 
L 151.092 68.676003 
L 153.4356 69.359601 
L 153.7704 69.665593 
L 154.44 69.799057 
L 154.7748 70.131091 
L 155.1096 70.205961 
L 155.4444 70.521718 
L 157.788 71.130447 
L 158.1228 71.556882 
L 158.4576 71.621986 
L 158.7924 71.8173 
L 159.462 71.927978 
L 159.7968 72.559493 
L 165.4884 74.268489 
L 165.8232 74.70469 
L 166.8276 74.942321 
L 167.4972 75.062765 
L 167.832 75.453393 
L 169.506 75.870062 
L 170.5104 76.32905 
L 171.18 76.517853 
L 171.5148 76.722932 
L 172.5192 76.983351 
L 176.8716 78.441694 
L 177.2064 78.783493 
L 179.8848 79.65264 
L 181.224 80.21905 
L 187.2504 82.12987 
L 190.2636 83.370113 
L 191.268 83.744464 
L 192.942 84.555017 
L 194.2812 85.066088 
L 195.6204 85.746431 
L 195.9552 86.211929 
L 196.6248 86.501645 
L 199.9728 87.868841 
L 200.6424 88.132515 
L 200.9772 88.640331 
L 202.6512 89.385779 
L 204.66 90.339561 
L 204.9948 90.717168 
L 209.0124 92.416398 
L 209.682 92.875386 
L 210.6864 93.370181 
L 212.6952 94.444407 
L 213.6996 94.978265 
L 214.704 95.447018 
L 215.3736 95.922281 
L 219.0564 97.849378 
L 219.726 98.194432 
L 221.0652 98.86501 
L 221.7348 99.131939 
L 223.7436 100.404734 
L 224.4132 100.938591 
L 225.7524 101.775186 
L 226.7568 102.322064 
L 227.7612 103.083788 
L 228.7656 103.679495 
L 230.1048 104.496558 
L 231.1092 105.248516 
L 231.7788 105.564274 
L 232.7832 106.21532 
L 233.4528 106.622224 
L 236.1312 108.744634 
L 236.466 108.930182 
L 236.8008 109.285002 
L 237.4704 109.763521 
L 238.4748 110.52199 
L 241.1532 112.63789 
L 242.8272 114.079957 
L 243.4968 114.665898 
L 244.5012 115.531789 
L 245.1708 116.085179 
L 245.5056 116.306534 
L 245.8404 116.729714 
L 246.51 117.283103 
L 248.5188 119.180903 
L 257.5584 127.634736 
L 257.8932 128.243464 
L 259.2324 129.39256 
L 261.9108 132.644536 
L 262.9152 133.718762 
L 263.5848 134.558611 
L 263.9196 134.845071 
L 268.6068 141.502018 
L 269.2764 142.172595 
L 271.62 144.985114 
L 272.2896 145.890068 
L 273.294 147.270286 
L 275.3028 150.632939 
L 275.9724 151.414194 
L 276.642 152.530738 
L 277.9812 154.701977 
L 280.6596 159.48391 
L 281.3292 160.590689 
L 281.664 161.453325 
L 281.9988 161.821166 
L 283.0032 163.862195 
L 284.3424 166.11807 
L 287.6904 172.579702 
L 288.36 174.012004 
L 288.6948 174.497033 
L 289.0296 175.193652 
L 289.3644 176.310196 
L 289.6992 176.85382 
L 290.3688 178.55305 
L 291.708 181.101895 
L 295.3908 188.86562 
L 295.7256 189.392967 
L 296.3952 190.831779 
L 297.0648 192.364993 
L 297.7344 193.982842 
L 300.7476 200.636533 
L 301.4172 202.518056 
L 301.752 203.029128 
L 302.7564 205.255705 
L 304.0956 208.006375 
L 305.1 210.324099 
L 306.774 213.8723 
L 308.448 217.667899 
L 317.4876 236.727273 
L 318.492 239.012444 
L 318.8268 240.002035 
L 319.4964 241.108813 
L 320.8356 243.719508 
L 325.188 252.629073 
L 325.8576 254.009291 
L 326.5272 255.55227 
L 327.1968 257.036655 
L 329.5404 262.085518 
L 330.8796 265.031501 
L 333.2232 269.670204 
L 340.9236 285.803126 
L 343.602 290.353938 
L 345.276 293.579872 
L 347.6196 297.212709 
L 348.624 299.312333 
L 348.9588 299.715981 
L 349.6284 300.799973 
L 351.6372 303.628768 
L 351.972 303.915228 
L 356.3244 309.510969 
L 356.994 310.093656 
L 357.9984 311.001865 
L 358.3332 311.249262 
L 358.668 311.766844 
L 359.0028 312.059815 
L 359.3376 312.55461 
L 359.6724 312.688074 
L 361.6812 314.494727 
L 365.364 317.160761 
L 365.6988 317.271439 
L 366.0336 317.684853 
L 367.3728 318.121054 
L 367.7076 318.527958 
L 369.0468 318.977179 
L 369.7164 319.54359 
L 371.7252 320.32159 
L 372.06 320.389949 
L 372.7296 320.74477 
L 373.3992 320.842427 
L 374.4036 321.301414 
L 378.0864 322.222644 
L 378.756 322.427724 
L 382.4388 323.202469 
L 384.1128 323.322912 
L 385.1172 323.410803 
L 388.8 323.462887 
L 388.8 323.462887 
" style="fill:none;stroke:#ff0000;stroke-linecap:square;"/>
   </g>
   <g id="line2d_3">
    <path clip-path="url(#p0f4308f191)" d="M 54 36 
L 54.3348 76.435074 
L 57.0132 76.620258 
L 58.6872 76.919151 
L 63.0396 77.858066 
L 63.7092 78.147213 
L 65.3832 79.349284 
L 66.0528 79.748892 
L 67.0572 80.262209 
L 68.3964 81.386307 
L 70.0704 81.893127 
L 71.0748 82.211513 
L 75.0924 83.770957 
L 76.0968 84.004873 
L 78.1056 84.521439 
L 79.7796 85.203696 
L 81.4536 85.970422 
L 83.7972 86.886595 
L 84.8016 87.341433 
L 86.8104 88.052929 
L 87.48 88.725439 
L 89.154 89.518156 
L 89.4888 89.742326 
L 90.1584 90.427832 
L 90.4932 90.652002 
L 90.828 91.123084 
L 92.502 91.75011 
L 93.8412 92.805983 
L 94.176 93.322549 
L 95.1804 93.744898 
L 95.85 94.238722 
L 96.5196 94.560357 
L 97.1892 94.930725 
L 97.8588 95.206877 
L 98.1936 95.473282 
L 98.8632 95.807912 
L 99.5328 96.100308 
L 100.5372 96.45768 
L 101.2068 96.831297 
L 101.5416 96.932011 
L 101.8764 97.221158 
L 102.546 97.448577 
L 103.2156 97.698738 
L 103.8852 98.030119 
L 104.5548 98.283529 
L 105.5592 98.744864 
L 106.5636 99.186707 
L 107.568 99.524586 
L 110.2464 100.544722 
L 111.2508 100.91509 
L 112.59 101.415412 
L 113.9292 101.938475 
L 117.612 103.403702 
L 117.9468 103.731835 
L 118.9512 104.08271 
L 119.6208 104.436834 
L 122.634 105.635656 
L 123.3036 106.230194 
L 124.6428 106.727267 
L 126.3168 107.230837 
L 126.6516 107.66943 
L 127.656 107.974821 
L 128.9952 108.725304 
L 129.6648 108.87475 
L 129.9996 109.196386 
L 130.3344 109.332837 
L 130.6692 109.748689 
L 131.3388 109.891638 
L 132.678 110.83705 
L 133.3476 111.301635 
L 134.0172 111.639514 
L 134.352 111.775965 
L 134.6868 112.21131 
L 138.3696 114.134624 
L 138.7044 114.433517 
L 139.0392 114.540729 
L 139.374 114.826627 
L 140.0436 115.034553 
L 141.048 115.57386 
L 142.3872 116.074182 
L 142.722 116.467292 
L 143.7264 116.769434 
L 146.07 117.828556 
L 146.4048 118.43284 
L 148.7484 119.547193 
L 149.0832 119.972791 
L 150.0876 120.414633 
L 150.4224 120.655048 
L 151.4268 120.947443 
L 152.0964 121.899354 
L 153.1008 122.373684 
L 154.1052 122.971471 
L 155.1096 123.471793 
L 156.114 123.981861 
L 158.4576 124.93702 
L 159.1272 125.424346 
L 160.8012 126.259298 
L 161.4708 126.863583 
L 163.1448 127.536093 
L 163.4796 127.802498 
L 163.8144 128.247589 
L 165.1536 128.764154 
L 166.158 129.257978 
L 166.4928 132.08447 
L 167.4972 132.39311 
L 167.832 132.552303 
L 168.1668 133.533453 
L 168.5016 133.669904 
L 168.8364 134.105249 
L 169.1712 135.193611 
L 171.18 136.103286 
L 171.8496 136.697824 
L 172.1844 137.162408 
L 172.854 137.490541 
L 174.528 138.383972 
L 174.8628 138.718603 
L 177.2064 139.73549 
L 177.5412 140.502217 
L 179.55 141.619818 
L 180.2196 142.012928 
L 180.5544 142.857626 
L 181.224 143.091543 
L 181.5588 143.383939 
L 182.898 144.001218 
L 183.9024 144.849166 
L 184.9068 145.326745 
L 185.2416 145.966767 
L 185.9112 146.333886 
L 186.246 146.652272 
L 186.5808 146.795221 
L 186.9156 149.160378 
L 187.5852 149.491759 
L 187.92 153.094724 
L 188.5896 153.500829 
L 189.9288 154.173339 
L 190.2636 155.024536 
L 192.2724 156.187621 
L 192.942 156.544993 
L 194.2812 157.890013 
L 194.9508 158.338353 
L 195.6204 158.74121 
L 196.29 159.153812 
L 197.6292 160.047244 
L 197.964 161.327287 
L 202.3164 163.796406 
L 202.6512 163.890622 
L 202.986 164.209009 
L 204.66 165.0732 
L 204.9948 165.531287 
L 205.6644 165.979627 
L 207.6732 167.366882 
L 208.008 167.555315 
L 209.0124 168.481235 
L 209.682 168.893837 
L 210.3516 169.387661 
L 211.356 169.913973 
L 212.0256 170.359065 
L 216.0432 172.720972 
L 216.7128 173.075096 
L 217.0476 173.357745 
L 217.3824 173.981522 
L 218.052 174.319402 
L 219.0564 175.294054 
L 219.3912 176.129006 
L 220.3956 176.798267 
L 221.4 177.418796 
L 222.0696 178.114048 
L 222.4044 178.344716 
L 222.7392 178.848286 
L 223.7436 179.501303 
L 225.0828 180.316762 
L 225.4176 180.843074 
L 226.422 181.408373 
L 226.7568 181.820975 
L 228.096 182.626688 
L 228.7656 183.078277 
L 229.4352 183.390165 
L 230.1048 183.822261 
L 231.1092 184.6962 
L 231.444 184.829402 
L 232.1136 185.349217 
L 234.792 187.064605 
L 235.1268 187.44147 
L 236.1312 188.091238 
L 236.8008 188.59156 
L 237.4704 189.215337 
L 237.8052 190.212731 
L 238.4748 190.511625 
L 239.1444 191.076923 
L 240.1488 191.78517 
L 241.1532 192.408948 
L 242.4924 193.549291 
L 243.8316 194.452469 
L 245.5056 195.612305 
L 246.1752 196.005415 
L 250.1928 199.322481 
L 251.1972 199.900775 
L 252.5364 201.028123 
L 253.206 201.638905 
L 256.2192 204.348438 
L 257.2236 205.085925 
L 258.5628 206.297743 
L 258.8976 206.538157 
L 259.5672 207.148939 
L 261.2412 208.68889 
L 263.5848 210.456259 
L 264.5892 211.427663 
L 265.9284 212.645978 
L 266.598 213.357474 
L 268.272 214.65701 
L 268.9416 215.41399 
L 269.2764 215.959796 
L 270.6156 217.119632 
L 270.9504 217.68493 
L 271.9548 218.549122 
L 273.294 219.78693 
L 274.6332 221.326881 
L 274.968 221.710244 
L 275.3028 222.330773 
L 275.9724 223.071508 
L 276.3072 223.562083 
L 276.9768 224.059156 
L 277.6464 224.913601 
L 277.9812 225.147518 
L 279.6552 227.054587 
L 280.9944 228.594538 
L 281.3292 228.825206 
L 282.3336 230.095502 
L 283.0032 230.683543 
L 284.0076 231.983079 
L 285.3468 233.500288 
L 286.0164 234.231277 
L 287.0208 235.534062 
L 287.6904 236.424244 
L 288.6948 237.457376 
L 289.3644 238.191614 
L 289.6992 238.795898 
L 290.7036 239.858269 
L 291.3732 240.751701 
L 292.0428 241.492436 
L 292.7124 242.486582 
L 295.056 245.095401 
L 295.3908 245.709432 
L 296.0604 246.518393 
L 296.3952 247.301364 
L 297.3996 248.509933 
L 298.0692 249.367627 
L 302.0868 254.14992 
L 304.4304 257.652171 
L 305.7696 259.205117 
L 306.774 260.517649 
L 308.7828 262.668381 
L 309.1176 263.431859 
L 309.7872 264.023148 
L 311.1264 265.764527 
L 320.8356 277.63904 
L 321.5052 278.70466 
L 321.84 279.010051 
L 322.1748 280.046431 
L 322.5096 280.338827 
L 323.514 281.657856 
L 324.8532 283.097093 
L 325.8576 284.273173 
L 326.862 285.260821 
L 328.2012 286.849504 
L 329.8752 288.629869 
L 330.5448 289.442079 
L 331.884 290.95279 
L 332.5536 291.664286 
L 333.2232 292.301059 
L 334.2276 293.473891 
L 334.8972 294.312092 
L 335.232 294.490778 
L 338.58 297.866324 
L 339.2496 298.957934 
L 339.9192 299.601205 
L 341.928 302.531659 
L 342.2628 302.762327 
L 343.9368 304.614166 
L 348.2892 307.927984 
L 348.624 308.402315 
L 349.2936 309.06183 
L 350.298 309.906528 
L 351.3024 310.458831 
L 351.972 311.10535 
L 353.3112 312.271684 
L 354.6504 313.541981 
L 355.9896 314.506887 
L 357.6636 315.553014 
L 358.3332 315.903888 
L 359.3376 316.475684 
L 359.6724 316.569901 
L 360.6768 317.317134 
L 361.6812 317.924668 
L 362.6856 318.330773 
L 363.69 318.792108 
L 364.0248 319.136485 
L 364.6944 319.373651 
L 365.364 319.724525 
L 371.0556 321.573116 
L 371.7252 322.001963 
L 372.3948 322.148161 
L 377.082 322.872652 
L 377.7516 322.983113 
L 379.7604 323.139057 
L 382.7736 323.402213 
L 388.8 323.528918 
L 388.8 323.528918 
" style="fill:none;stroke:#ffa500;stroke-linecap:square;"/>
   </g>
   <g id="patch_3">
    <path d="M 388.8 324 
L 388.8 36 
" style="fill:none;stroke:#000000;stroke-linecap:square;stroke-linejoin:miter;"/>
   </g>
   <g id="patch_4">
    <path d="M 54 36 
L 388.8 36 
" style="fill:none;stroke:#000000;stroke-linecap:square;stroke-linejoin:miter;"/>
   </g>
   <g id="patch_5">
    <path d="M 54 324 
L 54 36 
" style="fill:none;stroke:#000000;stroke-linecap:square;stroke-linejoin:miter;"/>
   </g>
   <g id="patch_6">
    <path d="M 54 324 
L 388.8 324 
" style="fill:none;stroke:#000000;stroke-linecap:square;stroke-linejoin:miter;"/>
   </g>
   <g id="matplotlib.axis_1">
    <g id="xtick_1">
     <g id="line2d_4">
      <defs>
       <path d="M 0 0 
L 0 -4 
" id="m38858b8146" style="stroke:#000000;stroke-width:0.5;"/>
      </defs>
      <g>
       <use style="stroke:#000000;stroke-width:0.5;" x="54.0" xlink:href="#m38858b8146" y="324.0"/>
      </g>
     </g>
     <g id="line2d_5">
      <defs>
       <path d="M 0 0 
L 0 4 
" id="m806af58bc6" style="stroke:#000000;stroke-width:0.5;"/>
      </defs>
      <g>
       <use style="stroke:#000000;stroke-width:0.5;" x="54.0" xlink:href="#m806af58bc6" y="36.0"/>
      </g>
     </g>
     <g id="text_1">
      <!-- 0.0 -->
      <defs>
       <path d="M 10.6875 12.40625 
L 21 12.40625 
L 21 0 
L 10.6875 0 
z
" id="BitstreamVeraSans-Roman-2e"/>
       <path d="M 31.78125 66.40625 
Q 24.171875 66.40625 20.328125 58.90625 
Q 16.5 51.421875 16.5 36.375 
Q 16.5 21.390625 20.328125 13.890625 
Q 24.171875 6.390625 31.78125 6.390625 
Q 39.453125 6.390625 43.28125 13.890625 
Q 47.125 21.390625 47.125 36.375 
Q 47.125 51.421875 43.28125 58.90625 
Q 39.453125 66.40625 31.78125 66.40625 
M 31.78125 74.21875 
Q 44.046875 74.21875 50.515625 64.515625 
Q 56.984375 54.828125 56.984375 36.375 
Q 56.984375 17.96875 50.515625 8.265625 
Q 44.046875 -1.421875 31.78125 -1.421875 
Q 19.53125 -1.421875 13.0625 8.265625 
Q 6.59375 17.96875 6.59375 36.375 
Q 6.59375 54.828125 13.0625 64.515625 
Q 19.53125 74.21875 31.78125 74.21875 
" id="BitstreamVeraSans-Roman-30"/>
      </defs>
      <g transform="translate(44.458125 337.118125)scale(0.12 -0.12)">
       <use xlink:href="#BitstreamVeraSans-Roman-30"/>
       <use x="63.623046875" xlink:href="#BitstreamVeraSans-Roman-2e"/>
       <use x="95.41015625" xlink:href="#BitstreamVeraSans-Roman-30"/>
      </g>
     </g>
    </g>
    <g id="xtick_2">
     <g id="line2d_6">
      <g>
       <use style="stroke:#000000;stroke-width:0.5;" x="120.96" xlink:href="#m38858b8146" y="324.0"/>
      </g>
     </g>
     <g id="line2d_7">
      <g>
       <use style="stroke:#000000;stroke-width:0.5;" x="120.96" xlink:href="#m806af58bc6" y="36.0"/>
      </g>
     </g>
     <g id="text_2">
      <!-- 0.2 -->
      <defs>
       <path d="M 19.1875 8.296875 
L 53.609375 8.296875 
L 53.609375 0 
L 7.328125 0 
L 7.328125 8.296875 
Q 12.9375 14.109375 22.625 23.890625 
Q 32.328125 33.6875 34.8125 36.53125 
Q 39.546875 41.84375 41.421875 45.53125 
Q 43.3125 49.21875 43.3125 52.78125 
Q 43.3125 58.59375 39.234375 62.25 
Q 35.15625 65.921875 28.609375 65.921875 
Q 23.96875 65.921875 18.8125 64.3125 
Q 13.671875 62.703125 7.8125 59.421875 
L 7.8125 69.390625 
Q 13.765625 71.78125 18.9375 73 
Q 24.125 74.21875 28.421875 74.21875 
Q 39.75 74.21875 46.484375 68.546875 
Q 53.21875 62.890625 53.21875 53.421875 
Q 53.21875 48.921875 51.53125 44.890625 
Q 49.859375 40.875 45.40625 35.40625 
Q 44.1875 33.984375 37.640625 27.21875 
Q 31.109375 20.453125 19.1875 8.296875 
" id="BitstreamVeraSans-Roman-32"/>
      </defs>
      <g transform="translate(111.418125 337.118125)scale(0.12 -0.12)">
       <use xlink:href="#BitstreamVeraSans-Roman-30"/>
       <use x="63.623046875" xlink:href="#BitstreamVeraSans-Roman-2e"/>
       <use x="95.41015625" xlink:href="#BitstreamVeraSans-Roman-32"/>
      </g>
     </g>
    </g>
    <g id="xtick_3">
     <g id="line2d_8">
      <g>
       <use style="stroke:#000000;stroke-width:0.5;" x="187.92" xlink:href="#m38858b8146" y="324.0"/>
      </g>
     </g>
     <g id="line2d_9">
      <g>
       <use style="stroke:#000000;stroke-width:0.5;" x="187.92" xlink:href="#m806af58bc6" y="36.0"/>
      </g>
     </g>
     <g id="text_3">
      <!-- 0.4 -->
      <defs>
       <path d="M 37.796875 64.3125 
L 12.890625 25.390625 
L 37.796875 25.390625 
z
M 35.203125 72.90625 
L 47.609375 72.90625 
L 47.609375 25.390625 
L 58.015625 25.390625 
L 58.015625 17.1875 
L 47.609375 17.1875 
L 47.609375 0 
L 37.796875 0 
L 37.796875 17.1875 
L 4.890625 17.1875 
L 4.890625 26.703125 
z
" id="BitstreamVeraSans-Roman-34"/>
      </defs>
      <g transform="translate(178.378125 337.118125)scale(0.12 -0.12)">
       <use xlink:href="#BitstreamVeraSans-Roman-30"/>
       <use x="63.623046875" xlink:href="#BitstreamVeraSans-Roman-2e"/>
       <use x="95.41015625" xlink:href="#BitstreamVeraSans-Roman-34"/>
      </g>
     </g>
    </g>
    <g id="xtick_4">
     <g id="line2d_10">
      <g>
       <use style="stroke:#000000;stroke-width:0.5;" x="254.88" xlink:href="#m38858b8146" y="324.0"/>
      </g>
     </g>
     <g id="line2d_11">
      <g>
       <use style="stroke:#000000;stroke-width:0.5;" x="254.88" xlink:href="#m806af58bc6" y="36.0"/>
      </g>
     </g>
     <g id="text_4">
      <!-- 0.6 -->
      <defs>
       <path d="M 33.015625 40.375 
Q 26.375 40.375 22.484375 35.828125 
Q 18.609375 31.296875 18.609375 23.390625 
Q 18.609375 15.53125 22.484375 10.953125 
Q 26.375 6.390625 33.015625 6.390625 
Q 39.65625 6.390625 43.53125 10.953125 
Q 47.40625 15.53125 47.40625 23.390625 
Q 47.40625 31.296875 43.53125 35.828125 
Q 39.65625 40.375 33.015625 40.375 
M 52.59375 71.296875 
L 52.59375 62.3125 
Q 48.875 64.0625 45.09375 64.984375 
Q 41.3125 65.921875 37.59375 65.921875 
Q 27.828125 65.921875 22.671875 59.328125 
Q 17.53125 52.734375 16.796875 39.40625 
Q 19.671875 43.65625 24.015625 45.921875 
Q 28.375 48.1875 33.59375 48.1875 
Q 44.578125 48.1875 50.953125 41.515625 
Q 57.328125 34.859375 57.328125 23.390625 
Q 57.328125 12.15625 50.6875 5.359375 
Q 44.046875 -1.421875 33.015625 -1.421875 
Q 20.359375 -1.421875 13.671875 8.265625 
Q 6.984375 17.96875 6.984375 36.375 
Q 6.984375 53.65625 15.1875 63.9375 
Q 23.390625 74.21875 37.203125 74.21875 
Q 40.921875 74.21875 44.703125 73.484375 
Q 48.484375 72.75 52.59375 71.296875 
" id="BitstreamVeraSans-Roman-36"/>
      </defs>
      <g transform="translate(245.338125 337.118125)scale(0.12 -0.12)">
       <use xlink:href="#BitstreamVeraSans-Roman-30"/>
       <use x="63.623046875" xlink:href="#BitstreamVeraSans-Roman-2e"/>
       <use x="95.41015625" xlink:href="#BitstreamVeraSans-Roman-36"/>
      </g>
     </g>
    </g>
    <g id="xtick_5">
     <g id="line2d_12">
      <g>
       <use style="stroke:#000000;stroke-width:0.5;" x="321.84" xlink:href="#m38858b8146" y="324.0"/>
      </g>
     </g>
     <g id="line2d_13">
      <g>
       <use style="stroke:#000000;stroke-width:0.5;" x="321.84" xlink:href="#m806af58bc6" y="36.0"/>
      </g>
     </g>
     <g id="text_5">
      <!-- 0.8 -->
      <defs>
       <path d="M 31.78125 34.625 
Q 24.75 34.625 20.71875 30.859375 
Q 16.703125 27.09375 16.703125 20.515625 
Q 16.703125 13.921875 20.71875 10.15625 
Q 24.75 6.390625 31.78125 6.390625 
Q 38.8125 6.390625 42.859375 10.171875 
Q 46.921875 13.96875 46.921875 20.515625 
Q 46.921875 27.09375 42.890625 30.859375 
Q 38.875 34.625 31.78125 34.625 
M 21.921875 38.8125 
Q 15.578125 40.375 12.03125 44.71875 
Q 8.5 49.078125 8.5 55.328125 
Q 8.5 64.0625 14.71875 69.140625 
Q 20.953125 74.21875 31.78125 74.21875 
Q 42.671875 74.21875 48.875 69.140625 
Q 55.078125 64.0625 55.078125 55.328125 
Q 55.078125 49.078125 51.53125 44.71875 
Q 48 40.375 41.703125 38.8125 
Q 48.828125 37.15625 52.796875 32.3125 
Q 56.78125 27.484375 56.78125 20.515625 
Q 56.78125 9.90625 50.3125 4.234375 
Q 43.84375 -1.421875 31.78125 -1.421875 
Q 19.734375 -1.421875 13.25 4.234375 
Q 6.78125 9.90625 6.78125 20.515625 
Q 6.78125 27.484375 10.78125 32.3125 
Q 14.796875 37.15625 21.921875 38.8125 
M 18.3125 54.390625 
Q 18.3125 48.734375 21.84375 45.5625 
Q 25.390625 42.390625 31.78125 42.390625 
Q 38.140625 42.390625 41.71875 45.5625 
Q 45.3125 48.734375 45.3125 54.390625 
Q 45.3125 60.0625 41.71875 63.234375 
Q 38.140625 66.40625 31.78125 66.40625 
Q 25.390625 66.40625 21.84375 63.234375 
Q 18.3125 60.0625 18.3125 54.390625 
" id="BitstreamVeraSans-Roman-38"/>
      </defs>
      <g transform="translate(312.298125 337.118125)scale(0.12 -0.12)">
       <use xlink:href="#BitstreamVeraSans-Roman-30"/>
       <use x="63.623046875" xlink:href="#BitstreamVeraSans-Roman-2e"/>
       <use x="95.41015625" xlink:href="#BitstreamVeraSans-Roman-38"/>
      </g>
     </g>
    </g>
    <g id="xtick_6">
     <g id="line2d_14">
      <g>
       <use style="stroke:#000000;stroke-width:0.5;" x="388.8" xlink:href="#m38858b8146" y="324.0"/>
      </g>
     </g>
     <g id="line2d_15">
      <g>
       <use style="stroke:#000000;stroke-width:0.5;" x="388.8" xlink:href="#m806af58bc6" y="36.0"/>
      </g>
     </g>
     <g id="text_6">
      <!-- 1.0 -->
      <defs>
       <path d="M 12.40625 8.296875 
L 28.515625 8.296875 
L 28.515625 63.921875 
L 10.984375 60.40625 
L 10.984375 69.390625 
L 28.421875 72.90625 
L 38.28125 72.90625 
L 38.28125 8.296875 
L 54.390625 8.296875 
L 54.390625 0 
L 12.40625 0 
z
" id="BitstreamVeraSans-Roman-31"/>
      </defs>
      <g transform="translate(379.258125 337.118125)scale(0.12 -0.12)">
       <use xlink:href="#BitstreamVeraSans-Roman-31"/>
       <use x="63.623046875" xlink:href="#BitstreamVeraSans-Roman-2e"/>
       <use x="95.41015625" xlink:href="#BitstreamVeraSans-Roman-30"/>
      </g>
     </g>
    </g>
    <g id="text_7">
     <!-- overlap score -->
     <defs>
      <path d="M 56.203125 29.59375 
L 56.203125 25.203125 
L 14.890625 25.203125 
Q 15.484375 15.921875 20.484375 11.0625 
Q 25.484375 6.203125 34.421875 6.203125 
Q 39.59375 6.203125 44.453125 7.46875 
Q 49.3125 8.734375 54.109375 11.28125 
L 54.109375 2.78125 
Q 49.265625 0.734375 44.1875 -0.34375 
Q 39.109375 -1.421875 33.890625 -1.421875 
Q 20.796875 -1.421875 13.15625 6.1875 
Q 5.515625 13.8125 5.515625 26.8125 
Q 5.515625 40.234375 12.765625 48.109375 
Q 20.015625 56 32.328125 56 
Q 43.359375 56 49.78125 48.890625 
Q 56.203125 41.796875 56.203125 29.59375 
M 47.21875 32.234375 
Q 47.125 39.59375 43.09375 43.984375 
Q 39.0625 48.390625 32.421875 48.390625 
Q 24.90625 48.390625 20.390625 44.140625 
Q 15.875 39.890625 15.1875 32.171875 
z
" id="BitstreamVeraSans-Roman-65"/>
      <path d="M 34.28125 27.484375 
Q 23.390625 27.484375 19.1875 25 
Q 14.984375 22.515625 14.984375 16.5 
Q 14.984375 11.71875 18.140625 8.90625 
Q 21.296875 6.109375 26.703125 6.109375 
Q 34.1875 6.109375 38.703125 11.40625 
Q 43.21875 16.703125 43.21875 25.484375 
L 43.21875 27.484375 
z
M 52.203125 31.203125 
L 52.203125 0 
L 43.21875 0 
L 43.21875 8.296875 
Q 40.140625 3.328125 35.546875 0.953125 
Q 30.953125 -1.421875 24.3125 -1.421875 
Q 15.921875 -1.421875 10.953125 3.296875 
Q 6 8.015625 6 15.921875 
Q 6 25.140625 12.171875 29.828125 
Q 18.359375 34.515625 30.609375 34.515625 
L 43.21875 34.515625 
L 43.21875 35.40625 
Q 43.21875 41.609375 39.140625 45 
Q 35.0625 48.390625 27.6875 48.390625 
Q 23 48.390625 18.546875 47.265625 
Q 14.109375 46.140625 10.015625 43.890625 
L 10.015625 52.203125 
Q 14.9375 54.109375 19.578125 55.046875 
Q 24.21875 56 28.609375 56 
Q 40.484375 56 46.34375 49.84375 
Q 52.203125 43.703125 52.203125 31.203125 
" id="BitstreamVeraSans-Roman-61"/>
      <path id="BitstreamVeraSans-Roman-20"/>
      <path d="M 9.421875 75.984375 
L 18.40625 75.984375 
L 18.40625 0 
L 9.421875 0 
z
" id="BitstreamVeraSans-Roman-6c"/>
      <path d="M 30.609375 48.390625 
Q 23.390625 48.390625 19.1875 42.75 
Q 14.984375 37.109375 14.984375 27.296875 
Q 14.984375 17.484375 19.15625 11.84375 
Q 23.34375 6.203125 30.609375 6.203125 
Q 37.796875 6.203125 41.984375 11.859375 
Q 46.1875 17.53125 46.1875 27.296875 
Q 46.1875 37.015625 41.984375 42.703125 
Q 37.796875 48.390625 30.609375 48.390625 
M 30.609375 56 
Q 42.328125 56 49.015625 48.375 
Q 55.71875 40.765625 55.71875 27.296875 
Q 55.71875 13.875 49.015625 6.21875 
Q 42.328125 -1.421875 30.609375 -1.421875 
Q 18.84375 -1.421875 12.171875 6.21875 
Q 5.515625 13.875 5.515625 27.296875 
Q 5.515625 40.765625 12.171875 48.375 
Q 18.84375 56 30.609375 56 
" id="BitstreamVeraSans-Roman-6f"/>
      <path d="M 41.109375 46.296875 
Q 39.59375 47.171875 37.8125 47.578125 
Q 36.03125 48 33.890625 48 
Q 26.265625 48 22.1875 43.046875 
Q 18.109375 38.09375 18.109375 28.8125 
L 18.109375 0 
L 9.078125 0 
L 9.078125 54.6875 
L 18.109375 54.6875 
L 18.109375 46.1875 
Q 20.953125 51.171875 25.484375 53.578125 
Q 30.03125 56 36.53125 56 
Q 37.453125 56 38.578125 55.875 
Q 39.703125 55.765625 41.0625 55.515625 
z
" id="BitstreamVeraSans-Roman-72"/>
      <path d="M 44.28125 53.078125 
L 44.28125 44.578125 
Q 40.484375 46.53125 36.375 47.5 
Q 32.28125 48.484375 27.875 48.484375 
Q 21.1875 48.484375 17.84375 46.4375 
Q 14.5 44.390625 14.5 40.28125 
Q 14.5 37.15625 16.890625 35.375 
Q 19.28125 33.59375 26.515625 31.984375 
L 29.59375 31.296875 
Q 39.15625 29.25 43.1875 25.515625 
Q 47.21875 21.78125 47.21875 15.09375 
Q 47.21875 7.46875 41.1875 3.015625 
Q 35.15625 -1.421875 24.609375 -1.421875 
Q 20.21875 -1.421875 15.453125 -0.5625 
Q 10.6875 0.296875 5.421875 2 
L 5.421875 11.28125 
Q 10.40625 8.6875 15.234375 7.390625 
Q 20.0625 6.109375 24.8125 6.109375 
Q 31.15625 6.109375 34.5625 8.28125 
Q 37.984375 10.453125 37.984375 14.40625 
Q 37.984375 18.0625 35.515625 20.015625 
Q 33.0625 21.96875 24.703125 23.78125 
L 21.578125 24.515625 
Q 13.234375 26.265625 9.515625 29.90625 
Q 5.8125 33.546875 5.8125 39.890625 
Q 5.8125 47.609375 11.28125 51.796875 
Q 16.75 56 26.8125 56 
Q 31.78125 56 36.171875 55.265625 
Q 40.578125 54.546875 44.28125 53.078125 
" id="BitstreamVeraSans-Roman-73"/>
      <path d="M 2.984375 54.6875 
L 12.5 54.6875 
L 29.59375 8.796875 
L 46.6875 54.6875 
L 56.203125 54.6875 
L 35.6875 0 
L 23.484375 0 
z
" id="BitstreamVeraSans-Roman-76"/>
      <path d="M 48.78125 52.59375 
L 48.78125 44.1875 
Q 44.96875 46.296875 41.140625 47.34375 
Q 37.3125 48.390625 33.40625 48.390625 
Q 24.65625 48.390625 19.8125 42.84375 
Q 14.984375 37.3125 14.984375 27.296875 
Q 14.984375 17.28125 19.8125 11.734375 
Q 24.65625 6.203125 33.40625 6.203125 
Q 37.3125 6.203125 41.140625 7.25 
Q 44.96875 8.296875 48.78125 10.40625 
L 48.78125 2.09375 
Q 45.015625 0.34375 40.984375 -0.53125 
Q 36.96875 -1.421875 32.421875 -1.421875 
Q 20.0625 -1.421875 12.78125 6.34375 
Q 5.515625 14.109375 5.515625 27.296875 
Q 5.515625 40.671875 12.859375 48.328125 
Q 20.21875 56 33.015625 56 
Q 37.15625 56 41.109375 55.140625 
Q 45.0625 54.296875 48.78125 52.59375 
" id="BitstreamVeraSans-Roman-63"/>
      <path d="M 18.109375 8.203125 
L 18.109375 -20.796875 
L 9.078125 -20.796875 
L 9.078125 54.6875 
L 18.109375 54.6875 
L 18.109375 46.390625 
Q 20.953125 51.265625 25.265625 53.625 
Q 29.59375 56 35.59375 56 
Q 45.5625 56 51.78125 48.09375 
Q 58.015625 40.1875 58.015625 27.296875 
Q 58.015625 14.40625 51.78125 6.484375 
Q 45.5625 -1.421875 35.59375 -1.421875 
Q 29.59375 -1.421875 25.265625 0.953125 
Q 20.953125 3.328125 18.109375 8.203125 
M 48.6875 27.296875 
Q 48.6875 37.203125 44.609375 42.84375 
Q 40.53125 48.484375 33.40625 48.484375 
Q 26.265625 48.484375 22.1875 42.84375 
Q 18.109375 37.203125 18.109375 27.296875 
Q 18.109375 17.390625 22.1875 11.75 
Q 26.265625 6.109375 33.40625 6.109375 
Q 40.53125 6.109375 44.609375 11.75 
Q 48.6875 17.390625 48.6875 27.296875 
" id="BitstreamVeraSans-Roman-70"/>
     </defs>
     <g transform="translate(180.706875 353.731875)scale(0.12 -0.12)">
      <use xlink:href="#BitstreamVeraSans-Roman-6f"/>
      <use x="61.181640625" xlink:href="#BitstreamVeraSans-Roman-76"/>
      <use x="120.361328125" xlink:href="#BitstreamVeraSans-Roman-65"/>
      <use x="181.884765625" xlink:href="#BitstreamVeraSans-Roman-72"/>
      <use x="222.998046875" xlink:href="#BitstreamVeraSans-Roman-6c"/>
      <use x="250.78125" xlink:href="#BitstreamVeraSans-Roman-61"/>
      <use x="312.060546875" xlink:href="#BitstreamVeraSans-Roman-70"/>
      <use x="375.537109375" xlink:href="#BitstreamVeraSans-Roman-20"/>
      <use x="407.32421875" xlink:href="#BitstreamVeraSans-Roman-73"/>
      <use x="459.423828125" xlink:href="#BitstreamVeraSans-Roman-63"/>
      <use x="514.404296875" xlink:href="#BitstreamVeraSans-Roman-6f"/>
      <use x="575.5859375" xlink:href="#BitstreamVeraSans-Roman-72"/>
      <use x="616.66796875" xlink:href="#BitstreamVeraSans-Roman-65"/>
     </g>
    </g>
   </g>
   <g id="matplotlib.axis_2">
    <g id="ytick_1">
     <g id="line2d_16">
      <defs>
       <path d="M 0 0 
L 4 0 
" id="m4de091de5e" style="stroke:#000000;stroke-width:0.5;"/>
      </defs>
      <g>
       <use style="stroke:#000000;stroke-width:0.5;" x="54.0" xlink:href="#m4de091de5e" y="324.0"/>
      </g>
     </g>
     <g id="line2d_17">
      <defs>
       <path d="M 0 0 
L -4 0 
" id="m566946835f" style="stroke:#000000;stroke-width:0.5;"/>
      </defs>
      <g>
       <use style="stroke:#000000;stroke-width:0.5;" x="388.8" xlink:href="#m566946835f" y="324.0"/>
      </g>
     </g>
     <g id="text_8">
      <!-- 0.0 -->
      <g transform="translate(30.91625 327.31125)scale(0.12 -0.12)">
       <use xlink:href="#BitstreamVeraSans-Roman-30"/>
       <use x="63.623046875" xlink:href="#BitstreamVeraSans-Roman-2e"/>
       <use x="95.41015625" xlink:href="#BitstreamVeraSans-Roman-30"/>
      </g>
     </g>
    </g>
    <g id="ytick_2">
     <g id="line2d_18">
      <g>
       <use style="stroke:#000000;stroke-width:0.5;" x="54.0" xlink:href="#m4de091de5e" y="266.4"/>
      </g>
     </g>
     <g id="line2d_19">
      <g>
       <use style="stroke:#000000;stroke-width:0.5;" x="388.8" xlink:href="#m566946835f" y="266.4"/>
      </g>
     </g>
     <g id="text_9">
      <!-- 0.2 -->
      <g transform="translate(30.91625 269.71125)scale(0.12 -0.12)">
       <use xlink:href="#BitstreamVeraSans-Roman-30"/>
       <use x="63.623046875" xlink:href="#BitstreamVeraSans-Roman-2e"/>
       <use x="95.41015625" xlink:href="#BitstreamVeraSans-Roman-32"/>
      </g>
     </g>
    </g>
    <g id="ytick_3">
     <g id="line2d_20">
      <g>
       <use style="stroke:#000000;stroke-width:0.5;" x="54.0" xlink:href="#m4de091de5e" y="208.8"/>
      </g>
     </g>
     <g id="line2d_21">
      <g>
       <use style="stroke:#000000;stroke-width:0.5;" x="388.8" xlink:href="#m566946835f" y="208.8"/>
      </g>
     </g>
     <g id="text_10">
      <!-- 0.4 -->
      <g transform="translate(30.91625 212.11125)scale(0.12 -0.12)">
       <use xlink:href="#BitstreamVeraSans-Roman-30"/>
       <use x="63.623046875" xlink:href="#BitstreamVeraSans-Roman-2e"/>
       <use x="95.41015625" xlink:href="#BitstreamVeraSans-Roman-34"/>
      </g>
     </g>
    </g>
    <g id="ytick_4">
     <g id="line2d_22">
      <g>
       <use style="stroke:#000000;stroke-width:0.5;" x="54.0" xlink:href="#m4de091de5e" y="151.2"/>
      </g>
     </g>
     <g id="line2d_23">
      <g>
       <use style="stroke:#000000;stroke-width:0.5;" x="388.8" xlink:href="#m566946835f" y="151.2"/>
      </g>
     </g>
     <g id="text_11">
      <!-- 0.6 -->
      <g transform="translate(30.91625 154.51125)scale(0.12 -0.12)">
       <use xlink:href="#BitstreamVeraSans-Roman-30"/>
       <use x="63.623046875" xlink:href="#BitstreamVeraSans-Roman-2e"/>
       <use x="95.41015625" xlink:href="#BitstreamVeraSans-Roman-36"/>
      </g>
     </g>
    </g>
    <g id="ytick_5">
     <g id="line2d_24">
      <g>
       <use style="stroke:#000000;stroke-width:0.5;" x="54.0" xlink:href="#m4de091de5e" y="93.6"/>
      </g>
     </g>
     <g id="line2d_25">
      <g>
       <use style="stroke:#000000;stroke-width:0.5;" x="388.8" xlink:href="#m566946835f" y="93.6"/>
      </g>
     </g>
     <g id="text_12">
      <!-- 0.8 -->
      <g transform="translate(30.91625 96.91125)scale(0.12 -0.12)">
       <use xlink:href="#BitstreamVeraSans-Roman-30"/>
       <use x="63.623046875" xlink:href="#BitstreamVeraSans-Roman-2e"/>
       <use x="95.41015625" xlink:href="#BitstreamVeraSans-Roman-38"/>
      </g>
     </g>
    </g>
    <g id="ytick_6">
     <g id="line2d_26">
      <g>
       <use style="stroke:#000000;stroke-width:0.5;" x="54.0" xlink:href="#m4de091de5e" y="36.0"/>
      </g>
     </g>
     <g id="line2d_27">
      <g>
       <use style="stroke:#000000;stroke-width:0.5;" x="388.8" xlink:href="#m566946835f" y="36.0"/>
      </g>
     </g>
     <g id="text_13">
      <!-- 1.0 -->
      <g transform="translate(30.91625 39.31125)scale(0.12 -0.12)">
       <use xlink:href="#BitstreamVeraSans-Roman-31"/>
       <use x="63.623046875" xlink:href="#BitstreamVeraSans-Roman-2e"/>
       <use x="95.41015625" xlink:href="#BitstreamVeraSans-Roman-30"/>
      </g>
     </g>
    </g>
    <g id="text_14">
     <!-- occurrence -->
     <defs>
      <path d="M 8.5 21.578125 
L 8.5 54.6875 
L 17.484375 54.6875 
L 17.484375 21.921875 
Q 17.484375 14.15625 20.5 10.265625 
Q 23.53125 6.390625 29.59375 6.390625 
Q 36.859375 6.390625 41.078125 11.03125 
Q 45.3125 15.671875 45.3125 23.6875 
L 45.3125 54.6875 
L 54.296875 54.6875 
L 54.296875 0 
L 45.3125 0 
L 45.3125 8.40625 
Q 42.046875 3.421875 37.71875 1 
Q 33.40625 -1.421875 27.6875 -1.421875 
Q 18.265625 -1.421875 13.375 4.4375 
Q 8.5 10.296875 8.5 21.578125 
" id="BitstreamVeraSans-Roman-75"/>
      <path d="M 54.890625 33.015625 
L 54.890625 0 
L 45.90625 0 
L 45.90625 32.71875 
Q 45.90625 40.484375 42.875 44.328125 
Q 39.84375 48.1875 33.796875 48.1875 
Q 26.515625 48.1875 22.3125 43.546875 
Q 18.109375 38.921875 18.109375 30.90625 
L 18.109375 0 
L 9.078125 0 
L 9.078125 54.6875 
L 18.109375 54.6875 
L 18.109375 46.1875 
Q 21.34375 51.125 25.703125 53.5625 
Q 30.078125 56 35.796875 56 
Q 45.21875 56 50.046875 50.171875 
Q 54.890625 44.34375 54.890625 33.015625 
" id="BitstreamVeraSans-Roman-6e"/>
     </defs>
     <g transform="translate(23.420625 213.4875)rotate(-90.0)scale(0.12 -0.12)">
      <use xlink:href="#BitstreamVeraSans-Roman-6f"/>
      <use x="61.181640625" xlink:href="#BitstreamVeraSans-Roman-63"/>
      <use x="116.162109375" xlink:href="#BitstreamVeraSans-Roman-63"/>
      <use x="171.142578125" xlink:href="#BitstreamVeraSans-Roman-75"/>
      <use x="234.521484375" xlink:href="#BitstreamVeraSans-Roman-72"/>
      <use x="275.619140625" xlink:href="#BitstreamVeraSans-Roman-72"/>
      <use x="316.701171875" xlink:href="#BitstreamVeraSans-Roman-65"/>
      <use x="378.224609375" xlink:href="#BitstreamVeraSans-Roman-6e"/>
      <use x="441.603515625" xlink:href="#BitstreamVeraSans-Roman-63"/>
      <use x="496.583984375" xlink:href="#BitstreamVeraSans-Roman-65"/>
     </g>
    </g>
   </g>
   <g id="text_15">
    <!-- FCNT - 3 evaluations, success -->
    <defs>
     <path d="M 9.421875 54.6875 
L 18.40625 54.6875 
L 18.40625 0 
L 9.421875 0 
z
M 9.421875 75.984375 
L 18.40625 75.984375 
L 18.40625 64.59375 
L 9.421875 64.59375 
z
" id="BitstreamVeraSans-Roman-69"/>
     <path d="M 9.8125 72.90625 
L 51.703125 72.90625 
L 51.703125 64.59375 
L 19.671875 64.59375 
L 19.671875 43.109375 
L 48.578125 43.109375 
L 48.578125 34.8125 
L 19.671875 34.8125 
L 19.671875 0 
L 9.8125 0 
z
" id="BitstreamVeraSans-Roman-46"/>
     <path d="M 4.890625 31.390625 
L 31.203125 31.390625 
L 31.203125 23.390625 
L 4.890625 23.390625 
z
" id="BitstreamVeraSans-Roman-2d"/>
     <path d="M 64.40625 67.28125 
L 64.40625 56.890625 
Q 59.421875 61.53125 53.78125 63.8125 
Q 48.140625 66.109375 41.796875 66.109375 
Q 29.296875 66.109375 22.65625 58.46875 
Q 16.015625 50.828125 16.015625 36.375 
Q 16.015625 21.96875 22.65625 14.328125 
Q 29.296875 6.6875 41.796875 6.6875 
Q 48.140625 6.6875 53.78125 8.984375 
Q 59.421875 11.28125 64.40625 15.921875 
L 64.40625 5.609375 
Q 59.234375 2.09375 53.4375 0.328125 
Q 47.65625 -1.421875 41.21875 -1.421875 
Q 24.65625 -1.421875 15.125 8.703125 
Q 5.609375 18.84375 5.609375 36.375 
Q 5.609375 53.953125 15.125 64.078125 
Q 24.65625 74.21875 41.21875 74.21875 
Q 47.75 74.21875 53.53125 72.484375 
Q 59.328125 70.75 64.40625 67.28125 
" id="BitstreamVeraSans-Roman-43"/>
     <path d="M -0.296875 72.90625 
L 61.375 72.90625 
L 61.375 64.59375 
L 35.5 64.59375 
L 35.5 0 
L 25.59375 0 
L 25.59375 64.59375 
L -0.296875 64.59375 
z
" id="BitstreamVeraSans-Roman-54"/>
     <path d="M 18.3125 70.21875 
L 18.3125 54.6875 
L 36.8125 54.6875 
L 36.8125 47.703125 
L 18.3125 47.703125 
L 18.3125 18.015625 
Q 18.3125 11.328125 20.140625 9.421875 
Q 21.96875 7.515625 27.59375 7.515625 
L 36.8125 7.515625 
L 36.8125 0 
L 27.59375 0 
Q 17.1875 0 13.234375 3.875 
Q 9.28125 7.765625 9.28125 18.015625 
L 9.28125 47.703125 
L 2.6875 47.703125 
L 2.6875 54.6875 
L 9.28125 54.6875 
L 9.28125 70.21875 
z
" id="BitstreamVeraSans-Roman-74"/>
     <path d="M 11.71875 12.40625 
L 22.015625 12.40625 
L 22.015625 4 
L 14.015625 -11.625 
L 7.71875 -11.625 
L 11.71875 4 
z
" id="BitstreamVeraSans-Roman-2c"/>
     <path d="M 40.578125 39.3125 
Q 47.65625 37.796875 51.625 33 
Q 55.609375 28.21875 55.609375 21.1875 
Q 55.609375 10.40625 48.1875 4.484375 
Q 40.765625 -1.421875 27.09375 -1.421875 
Q 22.515625 -1.421875 17.65625 -0.515625 
Q 12.796875 0.390625 7.625 2.203125 
L 7.625 11.71875 
Q 11.71875 9.328125 16.59375 8.109375 
Q 21.484375 6.890625 26.8125 6.890625 
Q 36.078125 6.890625 40.9375 10.546875 
Q 45.796875 14.203125 45.796875 21.1875 
Q 45.796875 27.640625 41.28125 31.265625 
Q 36.765625 34.90625 28.71875 34.90625 
L 20.21875 34.90625 
L 20.21875 43.015625 
L 29.109375 43.015625 
Q 36.375 43.015625 40.234375 45.921875 
Q 44.09375 48.828125 44.09375 54.296875 
Q 44.09375 59.90625 40.109375 62.90625 
Q 36.140625 65.921875 28.71875 65.921875 
Q 24.65625 65.921875 20.015625 65.03125 
Q 15.375 64.15625 9.8125 62.3125 
L 9.8125 71.09375 
Q 15.4375 72.65625 20.34375 73.4375 
Q 25.25 74.21875 29.59375 74.21875 
Q 40.828125 74.21875 47.359375 69.109375 
Q 53.90625 64.015625 53.90625 55.328125 
Q 53.90625 49.265625 50.4375 45.09375 
Q 46.96875 40.921875 40.578125 39.3125 
" id="BitstreamVeraSans-Roman-33"/>
     <path d="M 9.8125 72.90625 
L 23.09375 72.90625 
L 55.421875 11.921875 
L 55.421875 72.90625 
L 64.984375 72.90625 
L 64.984375 0 
L 51.703125 0 
L 19.390625 60.984375 
L 19.390625 0 
L 9.8125 0 
z
" id="BitstreamVeraSans-Roman-4e"/>
    </defs>
    <g transform="translate(114.042375 31.0)scale(0.144 -0.144)">
     <use xlink:href="#BitstreamVeraSans-Roman-46"/>
     <use x="57.51953125" xlink:href="#BitstreamVeraSans-Roman-43"/>
     <use x="127.34375" xlink:href="#BitstreamVeraSans-Roman-4e"/>
     <use x="202.1484375" xlink:href="#BitstreamVeraSans-Roman-54"/>
     <use x="263.232421875" xlink:href="#BitstreamVeraSans-Roman-20"/>
     <use x="295.01953125" xlink:href="#BitstreamVeraSans-Roman-2d"/>
     <use x="331.103515625" xlink:href="#BitstreamVeraSans-Roman-20"/>
     <use x="362.890625" xlink:href="#BitstreamVeraSans-Roman-33"/>
     <use x="426.513671875" xlink:href="#BitstreamVeraSans-Roman-20"/>
     <use x="458.30078125" xlink:href="#BitstreamVeraSans-Roman-65"/>
     <use x="519.82421875" xlink:href="#BitstreamVeraSans-Roman-76"/>
     <use x="579.00390625" xlink:href="#BitstreamVeraSans-Roman-61"/>
     <use x="640.283203125" xlink:href="#BitstreamVeraSans-Roman-6c"/>
     <use x="668.06640625" xlink:href="#BitstreamVeraSans-Roman-75"/>
     <use x="731.4453125" xlink:href="#BitstreamVeraSans-Roman-61"/>
     <use x="792.724609375" xlink:href="#BitstreamVeraSans-Roman-74"/>
     <use x="831.93359375" xlink:href="#BitstreamVeraSans-Roman-69"/>
     <use x="859.716796875" xlink:href="#BitstreamVeraSans-Roman-6f"/>
     <use x="920.8984375" xlink:href="#BitstreamVeraSans-Roman-6e"/>
     <use x="984.27734375" xlink:href="#BitstreamVeraSans-Roman-73"/>
     <use x="1036.376953125" xlink:href="#BitstreamVeraSans-Roman-2c"/>
     <use x="1068.1640625" xlink:href="#BitstreamVeraSans-Roman-20"/>
     <use x="1099.951171875" xlink:href="#BitstreamVeraSans-Roman-73"/>
     <use x="1152.05078125" xlink:href="#BitstreamVeraSans-Roman-75"/>
     <use x="1215.4296875" xlink:href="#BitstreamVeraSans-Roman-63"/>
     <use x="1270.41015625" xlink:href="#BitstreamVeraSans-Roman-63"/>
     <use x="1325.390625" xlink:href="#BitstreamVeraSans-Roman-65"/>
     <use x="1386.9140625" xlink:href="#BitstreamVeraSans-Roman-73"/>
     <use x="1439.013671875" xlink:href="#BitstreamVeraSans-Roman-73"/>
    </g>
   </g>
   <g id="legend_1">
    <g id="patch_7">
     <path d="M 61.2 316.8 
L 249.336875 316.8 
L 249.336875 249.159 
L 61.2 249.159 
z
" style="fill:#ffffff;stroke:#000000;stroke-linejoin:miter;"/>
    </g>
    <g id="patch_8">
     <path d="M 66.96 265.86075 
L 95.76 265.86075 
L 95.76 255.78075 
L 66.96 255.78075 
z
" style="fill:#ff0000;stroke:#ff0000;stroke-linejoin:miter;"/>
    </g>
    <g id="text_16">
     <!-- 0.638 - tb100(p50) -->
     <defs>
      <path d="M 48.6875 27.296875 
Q 48.6875 37.203125 44.609375 42.84375 
Q 40.53125 48.484375 33.40625 48.484375 
Q 26.265625 48.484375 22.1875 42.84375 
Q 18.109375 37.203125 18.109375 27.296875 
Q 18.109375 17.390625 22.1875 11.75 
Q 26.265625 6.109375 33.40625 6.109375 
Q 40.53125 6.109375 44.609375 11.75 
Q 48.6875 17.390625 48.6875 27.296875 
M 18.109375 46.390625 
Q 20.953125 51.265625 25.265625 53.625 
Q 29.59375 56 35.59375 56 
Q 45.5625 56 51.78125 48.09375 
Q 58.015625 40.1875 58.015625 27.296875 
Q 58.015625 14.40625 51.78125 6.484375 
Q 45.5625 -1.421875 35.59375 -1.421875 
Q 29.59375 -1.421875 25.265625 0.953125 
Q 20.953125 3.328125 18.109375 8.203125 
L 18.109375 0 
L 9.078125 0 
L 9.078125 75.984375 
L 18.109375 75.984375 
z
" id="BitstreamVeraSans-Roman-62"/>
      <path d="M 10.796875 72.90625 
L 49.515625 72.90625 
L 49.515625 64.59375 
L 19.828125 64.59375 
L 19.828125 46.734375 
Q 21.96875 47.46875 24.109375 47.828125 
Q 26.265625 48.1875 28.421875 48.1875 
Q 40.625 48.1875 47.75 41.5 
Q 54.890625 34.8125 54.890625 23.390625 
Q 54.890625 11.625 47.5625 5.09375 
Q 40.234375 -1.421875 26.90625 -1.421875 
Q 22.3125 -1.421875 17.546875 -0.640625 
Q 12.796875 0.140625 7.71875 1.703125 
L 7.71875 11.625 
Q 12.109375 9.234375 16.796875 8.0625 
Q 21.484375 6.890625 26.703125 6.890625 
Q 35.15625 6.890625 40.078125 11.328125 
Q 45.015625 15.765625 45.015625 23.390625 
Q 45.015625 31 40.078125 35.4375 
Q 35.15625 39.890625 26.703125 39.890625 
Q 22.75 39.890625 18.8125 39.015625 
Q 14.890625 38.140625 10.796875 36.28125 
z
" id="BitstreamVeraSans-Roman-35"/>
      <path d="M 8.015625 75.875 
L 15.828125 75.875 
Q 23.140625 64.359375 26.78125 53.3125 
Q 30.421875 42.28125 30.421875 31.390625 
Q 30.421875 20.453125 26.78125 9.375 
Q 23.140625 -1.703125 15.828125 -13.1875 
L 8.015625 -13.1875 
Q 14.5 -2 17.703125 9.0625 
Q 20.90625 20.125 20.90625 31.390625 
Q 20.90625 42.671875 17.703125 53.65625 
Q 14.5 64.65625 8.015625 75.875 
" id="BitstreamVeraSans-Roman-29"/>
      <path d="M 31 75.875 
Q 24.46875 64.65625 21.28125 53.65625 
Q 18.109375 42.671875 18.109375 31.390625 
Q 18.109375 20.125 21.3125 9.0625 
Q 24.515625 -2 31 -13.1875 
L 23.1875 -13.1875 
Q 15.875 -1.703125 12.234375 9.375 
Q 8.59375 20.453125 8.59375 31.390625 
Q 8.59375 42.28125 12.203125 53.3125 
Q 15.828125 64.359375 23.1875 75.875 
z
" id="BitstreamVeraSans-Roman-28"/>
     </defs>
     <g transform="translate(107.28 265.86075)scale(0.144 -0.144)">
      <use xlink:href="#BitstreamVeraSans-Roman-30"/>
      <use x="63.623046875" xlink:href="#BitstreamVeraSans-Roman-2e"/>
      <use x="95.41015625" xlink:href="#BitstreamVeraSans-Roman-36"/>
      <use x="159.033203125" xlink:href="#BitstreamVeraSans-Roman-33"/>
      <use x="222.65625" xlink:href="#BitstreamVeraSans-Roman-38"/>
      <use x="286.279296875" xlink:href="#BitstreamVeraSans-Roman-20"/>
      <use x="318.06640625" xlink:href="#BitstreamVeraSans-Roman-2d"/>
      <use x="354.150390625" xlink:href="#BitstreamVeraSans-Roman-20"/>
      <use x="385.9375" xlink:href="#BitstreamVeraSans-Roman-74"/>
      <use x="425.146484375" xlink:href="#BitstreamVeraSans-Roman-62"/>
      <use x="488.623046875" xlink:href="#BitstreamVeraSans-Roman-31"/>
      <use x="552.24609375" xlink:href="#BitstreamVeraSans-Roman-30"/>
      <use x="615.869140625" xlink:href="#BitstreamVeraSans-Roman-30"/>
      <use x="679.4921875" xlink:href="#BitstreamVeraSans-Roman-28"/>
      <use x="718.505859375" xlink:href="#BitstreamVeraSans-Roman-70"/>
      <use x="781.982421875" xlink:href="#BitstreamVeraSans-Roman-35"/>
      <use x="845.60546875" xlink:href="#BitstreamVeraSans-Roman-30"/>
      <use x="909.228515625" xlink:href="#BitstreamVeraSans-Roman-29"/>
     </g>
    </g>
    <g id="patch_9">
     <path d="M 66.96 286.99725 
L 95.76 286.99725 
L 95.76 276.91725 
L 66.96 276.91725 
z
" style="fill:#0000ff;stroke:#0000ff;stroke-linejoin:miter;"/>
    </g>
    <g id="text_17">
     <!-- 0.555 - tb100(full) -->
     <defs>
      <path d="M 37.109375 75.984375 
L 37.109375 68.5 
L 28.515625 68.5 
Q 23.6875 68.5 21.796875 66.546875 
Q 19.921875 64.59375 19.921875 59.515625 
L 19.921875 54.6875 
L 34.71875 54.6875 
L 34.71875 47.703125 
L 19.921875 47.703125 
L 19.921875 0 
L 10.890625 0 
L 10.890625 47.703125 
L 2.296875 47.703125 
L 2.296875 54.6875 
L 10.890625 54.6875 
L 10.890625 58.5 
Q 10.890625 67.625 15.140625 71.796875 
Q 19.390625 75.984375 28.609375 75.984375 
z
" id="BitstreamVeraSans-Roman-66"/>
     </defs>
     <g transform="translate(107.28 286.99725)scale(0.144 -0.144)">
      <use xlink:href="#BitstreamVeraSans-Roman-30"/>
      <use x="63.623046875" xlink:href="#BitstreamVeraSans-Roman-2e"/>
      <use x="95.41015625" xlink:href="#BitstreamVeraSans-Roman-35"/>
      <use x="159.033203125" xlink:href="#BitstreamVeraSans-Roman-35"/>
      <use x="222.65625" xlink:href="#BitstreamVeraSans-Roman-35"/>
      <use x="286.279296875" xlink:href="#BitstreamVeraSans-Roman-20"/>
      <use x="318.06640625" xlink:href="#BitstreamVeraSans-Roman-2d"/>
      <use x="354.150390625" xlink:href="#BitstreamVeraSans-Roman-20"/>
      <use x="385.9375" xlink:href="#BitstreamVeraSans-Roman-74"/>
      <use x="425.146484375" xlink:href="#BitstreamVeraSans-Roman-62"/>
      <use x="488.623046875" xlink:href="#BitstreamVeraSans-Roman-31"/>
      <use x="552.24609375" xlink:href="#BitstreamVeraSans-Roman-30"/>
      <use x="615.869140625" xlink:href="#BitstreamVeraSans-Roman-30"/>
      <use x="679.4921875" xlink:href="#BitstreamVeraSans-Roman-28"/>
      <use x="718.505859375" xlink:href="#BitstreamVeraSans-Roman-66"/>
      <use x="753.7109375" xlink:href="#BitstreamVeraSans-Roman-75"/>
      <use x="817.08984375" xlink:href="#BitstreamVeraSans-Roman-6c"/>
      <use x="844.873046875" xlink:href="#BitstreamVeraSans-Roman-6c"/>
      <use x="872.65625" xlink:href="#BitstreamVeraSans-Roman-29"/>
     </g>
    </g>
    <g id="patch_10">
     <path d="M 66.96 308.13375 
L 95.76 308.13375 
L 95.76 298.05375 
L 66.96 298.05375 
z
" style="fill:#ffa500;stroke:#ffa500;stroke-linejoin:miter;"/>
    </g>
    <g id="text_18">
     <!-- 0.473 - tb100(n50) -->
     <defs>
      <path d="M 8.203125 72.90625 
L 55.078125 72.90625 
L 55.078125 68.703125 
L 28.609375 0 
L 18.3125 0 
L 43.21875 64.59375 
L 8.203125 64.59375 
z
" id="BitstreamVeraSans-Roman-37"/>
     </defs>
     <g transform="translate(107.28 308.13375)scale(0.144 -0.144)">
      <use xlink:href="#BitstreamVeraSans-Roman-30"/>
      <use x="63.623046875" xlink:href="#BitstreamVeraSans-Roman-2e"/>
      <use x="95.41015625" xlink:href="#BitstreamVeraSans-Roman-34"/>
      <use x="159.033203125" xlink:href="#BitstreamVeraSans-Roman-37"/>
      <use x="222.65625" xlink:href="#BitstreamVeraSans-Roman-33"/>
      <use x="286.279296875" xlink:href="#BitstreamVeraSans-Roman-20"/>
      <use x="318.06640625" xlink:href="#BitstreamVeraSans-Roman-2d"/>
      <use x="354.150390625" xlink:href="#BitstreamVeraSans-Roman-20"/>
      <use x="385.9375" xlink:href="#BitstreamVeraSans-Roman-74"/>
      <use x="425.146484375" xlink:href="#BitstreamVeraSans-Roman-62"/>
      <use x="488.623046875" xlink:href="#BitstreamVeraSans-Roman-31"/>
      <use x="552.24609375" xlink:href="#BitstreamVeraSans-Roman-30"/>
      <use x="615.869140625" xlink:href="#BitstreamVeraSans-Roman-30"/>
      <use x="679.4921875" xlink:href="#BitstreamVeraSans-Roman-28"/>
      <use x="718.505859375" xlink:href="#BitstreamVeraSans-Roman-6e"/>
      <use x="781.884765625" xlink:href="#BitstreamVeraSans-Roman-35"/>
      <use x="845.5078125" xlink:href="#BitstreamVeraSans-Roman-30"/>
      <use x="909.130859375" xlink:href="#BitstreamVeraSans-Roman-29"/>
     </g>
    </g>
   </g>
  </g>
 </g>
 <defs>
  <clipPath id="p0f4308f191">
   <rect height="288.0" width="334.8" x="54.0" y="36.0"/>
  </clipPath>
 </defs>
</svg>
